<?xml version="1.0" encoding="UTF-8" standalone="no"?>
<!-- Created with Inkscape (http://www.inkscape.org/) -->

<svg
   xmlns:svg="http://www.w3.org/2000/svg"
   xmlns="http://www.w3.org/2000/svg"
   version="1.1"
   width="305"
   height="141.25"
   id="svg2"
   xml:space="preserve"><defs
     id="defs6" /><g
     transform="matrix(1.25,0,0,-1.25,0,141.25)"
     id="g12"><g
       id="g14" /><g
       id="g16"><path
         d="M 0,0 244,0 244,113 0,113 0,0 z"
         id="path18"
         style="fill:#ffffff;fill-opacity:1;fill-rule:nonzero;stroke:none" /><path
         d="m 7.500061,110.836 80.333309,0 c 2.76142,0 5,-2.2386 5,-5 l 0,-11 c 0,-2.76142 -2.23858,-5 -5,-5 l -80.333309,0 c -2.761429,0 -5,2.23858 -5,5 0,0 0,0 0,0 l 0,11 c 0,2.7614 2.238571,5 5,5 z"
         id="path20"
         style="fill:#ffffff;fill-opacity:1;fill-rule:nonzero;stroke:none" /><g
         transform="matrix(1,0,0,-1,-216.5,177.5)"
         id="g22"><path
           d="m 224.0001,66.664 80.3333,0 c 2.7614,0 5,2.23858 5,5 l 0,11 c 0,2.76142 -2.2386,5 -5,5 l -80.3333,0 c -2.7615,0 -5,-2.23858 -5,-5 0,0 0,0 0,0 l 0,-11 c 0,-2.76142 2.2385,-5 5,-5 z"
           id="path24"
           style="fill:none;stroke:#000000;stroke-width:1;stroke-linecap:round;stroke-linejoin:round;stroke-miterlimit:10;stroke-opacity:1;stroke-dasharray:none" /></g><g
         transform="matrix(1,0,0,-1,47.16672,100.836)"
         id="g26"><text
           transform="translate(-23.68652,4)"
           id="text28"><tspan
             x="0 8.0039997 14.6784 20.6784 27.3528 34.027199 40.701599"
             y="0"
             id="tspan30"
             style="font-size:12px;font-variant:normal;font-weight:normal;writing-mode:lr-tb;fill:#000000;fill-opacity:1;fill-rule:nonzero;stroke:none;font-family:Helvetica;-inkscape-font-specification:Helvetica">Ansehen</tspan></text>
</g><path
         d="m 7.500031,77.836 80.333309,0 c 2.76142,0 5,-2.23858 5,-5 l 0,-11 c 0,-2.76142 -2.23858,-5 -5,-5 l -80.333309,0 c -2.761429,0 -5,2.23858 -5,5 0,0 0,0 0,0 l 0,11 c 0,2.76142 2.238571,5 5,5 z"
         id="path32"
         style="fill:#ffffff;fill-opacity:1;fill-rule:nonzero;stroke:none" /><g
         transform="matrix(1,0,0,-1,-216.5,177.5)"
         id="g34"><path
           d="m 224,99.664 80.3333,0 c 2.7615,0 5,2.2386 5,5 l 0,11 c 0,2.7614 -2.2385,5 -5,5 l -80.3333,0 c -2.7614,0 -5,-2.2386 -5,-5 0,0 0,0 0,0 l 0,-11 c 0,-2.7614 2.2386,-5 5,-5 z"
           id="path36"
           style="fill:none;stroke:#000000;stroke-width:1;stroke-linecap:round;stroke-linejoin:round;stroke-miterlimit:10;stroke-opacity:1;stroke-dasharray:none" /></g><g
         transform="matrix(1,0,0,-1,47.16669,67.836)"
         id="g38"><text
           transform="translate(-30.35449,4)"
           id="text40"><tspan
             x="0 8.6664 11.3328 18.0072 24.0072 30.681601 34.015202 40.689602 47.363998 54.038399"
             y="0"
             id="tspan42"
             style="font-size:12px;font-variant:normal;font-weight:normal;writing-mode:lr-tb;fill:#000000;fill-opacity:1;fill-rule:nonzero;stroke:none;font-family:Helvetica;-inkscape-font-specification:Helvetica">Hinzufügen</tspan></text>
</g><path
         d="m 7.500031,34.5 80.333309,0 c 2.76142,0 5,-2.23857 5,-5 l 0,-11 c 0,-2.76143 -2.23858,-5 -5,-5 l -80.333309,0 c -2.761429,0 -5,2.23857 -5,5 0,0 0,0 0,0 l 0,11 c 0,2.76143 2.238571,5 5,5 z"
         id="path44"
         style="fill:#ffffff;fill-opacity:1;fill-rule:nonzero;stroke:none" /><g
         transform="matrix(1,0,0,-1,-216.5,177.5)"
         id="g46"><path
           d="m 224,143 80.3333,0 c 2.7615,0 5,2.2386 5,5 l 0,11 c 0,2.7614 -2.2385,5 -5,5 L 224,164 c -2.7614,0 -5,-2.2386 -5,-5 0,0 0,0 0,0 l 0,-11 c 0,-2.7614 2.2386,-5 5,-5 z"
           id="path48"
           style="fill:none;stroke:#000000;stroke-width:1;stroke-linecap:round;stroke-linejoin:round;stroke-miterlimit:10;stroke-opacity:1;stroke-dasharray:none" /></g><g
         transform="matrix(1,0,0,-1,47.16669,24.5)"
         id="g50"><text
           transform="translate(-29.02148,4)"
           id="text52"><tspan
             x="0 8.0039997 14.6784 21.3528 25.348801 32.023201 38.697601 41.363998 44.697601 51.372002"
             y="0"
             id="tspan54"
             style="font-size:12px;font-variant:normal;font-weight:normal;writing-mode:lr-tb;fill:#000000;fill-opacity:1;fill-rule:nonzero;stroke:none;font-family:Helvetica;-inkscape-font-specification:Helvetica">Bearbeiten</tspan></text>
</g><path
         d="m 134.9704,68.26793 13.1609,23.64236 c 1.3431,2.41278 4.3878,3.27993 6.8006,1.93682 0.8133,-0.45274 1.4841,-1.12352 1.9368,-1.93682 l 13.1609,-23.64236 c 1.3431,-2.41278 0.476,-5.45754 -1.9368,-6.80064 -0.7437,-0.41399 -1.5808,-0.63128 -2.4319,-0.63128 l -26.3218,0 c -2.7614,0 -5,2.23858 -5,5 0,0.85116 0.2173,1.68823 0.6313,2.43192 z"
         id="path56"
         style="fill:#ffffff;fill-opacity:1;fill-rule:nonzero;stroke:none" /><g
         transform="matrix(1,0,0,-1,-216.5,177.5)"
         id="g58"><path
           d="m 351.4704,109.2321 13.1609,-23.64239 c 1.3431,-2.41278 4.3878,-3.27993 6.8006,-1.93682 0.8133,0.45274 1.4841,1.12352 1.9368,1.93682 l 13.1609,23.64239 c 1.3431,2.4128 0.476,5.4575 -1.9368,6.8006 -0.7437,0.414 -1.5808,0.6313 -2.4319,0.6313 l -26.3218,0 c -2.7614,0 -5,-2.2386 -5,-5 0,-0.8512 0.2173,-1.6882 0.6313,-2.4319 z"
           id="path60"
           style="fill:none;stroke:#000000;stroke-width:1;stroke-linecap:round;stroke-linejoin:round;stroke-miterlimit:10;stroke-opacity:1;stroke-dasharray:none" /></g><path
         d="m 160.5423,103.2428 c 4.4417,-4.78746 4.4417,-12.54943 0,-17.33686 -4.4416,-4.78746 -11.643,-4.78746 -16.0846,0 -4.4417,4.78743 -4.4417,12.5494 0,17.33686 4.4416,4.7874 11.643,4.7874 16.0846,0"
         id="path62"
         style="fill:#ffffff;fill-opacity:1;fill-rule:nonzero;stroke:none" /><g
         transform="matrix(1,0,0,-1,-216.5,177.5)"
         id="g64"><path
           d="m 377.0423,74.25723 c 4.4417,4.78743 4.4417,12.5494 0,17.33683 -4.4416,4.78746 -11.643,4.78746 -16.0846,0 -4.4417,-4.78743 -4.4417,-12.5494 0,-17.33683 4.4416,-4.78746 11.643,-4.78746 16.0846,0"
           id="path66"
           style="fill:none;stroke:#000000;stroke-width:1;stroke-linecap:round;stroke-linejoin:round;stroke-miterlimit:10;stroke-opacity:1;stroke-dasharray:none" /></g><path
         d="m 134.9704,8.433197 13.1609,23.642333 c 1.3431,2.41278 4.3878,3.27992 6.8006,1.93681 0.8133,-0.45272 1.4841,-1.1235 1.9368,-1.93681 L 170.0296,8.433197 c 1.3431,-2.412781 0.476,-5.457535 -1.9368,-6.800644 -0.7437,-0.413986 -1.5808,-0.631271 -2.4319,-0.631271 l -26.3218,0 c -2.7614,0 -5,2.238571 -5,5 0,0.85115 0.2173,1.688217 0.6313,2.431915 z"
         id="path68"
         style="fill:#ffffff;fill-opacity:1;fill-rule:nonzero;stroke:none" /><g
         transform="matrix(1,0,0,-1,-216.5,177.5)"
         id="g70"><path
           d="m 351.4704,169.0668 13.1609,-23.6423 c 1.3431,-2.4128 4.3878,-3.28 6.8006,-1.9368 0.8133,0.4527 1.4841,1.1235 1.9368,1.9368 l 13.1609,23.6423 c 1.3431,2.4128 0.476,5.4575 -1.9368,6.8006 -0.7437,0.414 -1.5808,0.6313 -2.4319,0.6313 l -26.3218,0 c -2.7614,0 -5,-2.2386 -5,-5 0,-0.8511 0.2173,-1.6882 0.6313,-2.4319 z"
           id="path72"
           style="fill:none;stroke:#000000;stroke-width:1;stroke-linecap:round;stroke-linejoin:round;stroke-miterlimit:10;stroke-opacity:1;stroke-dasharray:none" /></g><path
         d="m 160.5418,43.4081 c 4.4417,-4.78743 4.4417,-12.5494 0,-17.33683 -4.4417,-4.78746 -11.643,-4.78746 -16.0847,0 -4.4417,4.78743 -4.4417,12.5494 0,17.33683 4.4417,4.78746 11.643,4.78746 16.0847,0"
         id="path74"
         style="fill:#ffffff;fill-opacity:1;fill-rule:nonzero;stroke:none" /><g
         transform="matrix(1,0,0,-1,-216.5,177.5)"
         id="g76"><path
           d="m 377.0418,134.0919 c 4.4417,4.7874 4.4417,12.5494 0,17.3368 -4.4417,4.7875 -11.643,4.7875 -16.0847,0 -4.4417,-4.7874 -4.4417,-12.5494 0,-17.3368 4.4417,-4.7875 11.643,-4.7875 16.0847,0"
           id="path78"
           style="fill:none;stroke:#000000;stroke-width:1;stroke-linecap:round;stroke-linejoin:round;stroke-miterlimit:10;stroke-opacity:1;stroke-dasharray:none" /></g><g
         transform="matrix(1,0,0,-1,-216.5,177.5)"
         id="g80"><path
           d="m 309.8333,76.52485 27.601,-0.3863"
           id="path82"
           style="fill:none;stroke:#000000;stroke-width:1;stroke-linecap:round;stroke-linejoin:round;stroke-miterlimit:10;stroke-opacity:1;stroke-dasharray:none" /></g><path
         d="m 128.9335,101.4734 -8.0412,2.8878 0.084,-5.99945 7.9572,3.11165 z"
         id="path84"
         style="fill:#000000;fill-opacity:1;fill-rule:nonzero;stroke:none" /><g
         transform="matrix(1,0,0,-1,-216.5,177.5)"
         id="g86"><path
           d="m 345.4335,76.02659 -8.0412,-2.88775 0.084,5.99941 7.9572,-3.11166 z"
           id="path88"
           style="fill:none;stroke:#000000;stroke-width:1;stroke-linecap:butt;stroke-linejoin:miter;stroke-miterlimit:10;stroke-opacity:1;stroke-dasharray:none" /></g><g
         transform="matrix(1,0,0,-1,-216.5,177.5)"
         id="g90"><path
           d="m 309.3333,110.1888 27.601,-0.3863"
           id="path92"
           style="fill:none;stroke:#000000;stroke-width:1;stroke-linecap:round;stroke-linejoin:round;stroke-miterlimit:10;stroke-opacity:1;stroke-dasharray:none" /></g><path
         d="m 128.4335,67.80941 -8.0412,2.88776 0.084,-5.99942 7.9572,3.11166 z"
         id="path94"
         style="fill:#000000;fill-opacity:1;fill-rule:nonzero;stroke:none" /><g
         transform="matrix(1,0,0,-1,-216.5,177.5)"
         id="g96"><path
           d="m 344.9335,109.6906 -8.0412,-2.8878 0.084,5.9994 7.9572,-3.1116 z"
           id="path98"
           style="fill:none;stroke:#000000;stroke-width:1;stroke-linecap:butt;stroke-linejoin:miter;stroke-miterlimit:10;stroke-opacity:1;stroke-dasharray:none" /></g><g
         transform="matrix(1,0,0,-1,-216.5,177.5)"
         id="g100"><path
           d="m 309.3333,153.5248 27.601,-0.3863"
           id="path102"
           style="fill:none;stroke:#000000;stroke-width:1;stroke-linecap:round;stroke-linejoin:round;stroke-miterlimit:10;stroke-opacity:1;stroke-dasharray:none" /></g><path
         d="m 128.4335,24.47342 -8.0412,2.88776 0.084,-5.99941 7.9572,3.11165 z"
         id="path104"
         style="fill:#000000;fill-opacity:1;fill-rule:nonzero;stroke:none" /><g
         transform="matrix(1,0,0,-1,-216.5,177.5)"
         id="g106"><path
           d="m 344.9335,153.0266 -8.0412,-2.8878 0.084,5.9994 7.9572,-3.1116 z"
           id="path108"
           style="fill:none;stroke:#000000;stroke-width:1;stroke-linecap:butt;stroke-linejoin:miter;stroke-miterlimit:10;stroke-opacity:1;stroke-dasharray:none" /></g><g
         transform="matrix(1,0,0,-1,208.1667,84.33469)"
         id="g110"><text
           transform="translate(-29.21094,4)"
           id="text112"><tspan
             x="0 8.0039997 14.6784 21.3528 28.027201 31.3608 37.360802 44.035198 48.0312"
             y="0"
             id="tspan114"
             style="font-size:12px;font-variant:normal;font-weight:normal;writing-mode:lr-tb;fill:#000000;fill-opacity:1;fill-rule:nonzero;stroke:none;font-family:Helvetica;-inkscape-font-specification:Helvetica">Benutzer </tspan></text>
</g><g
         transform="matrix(1,0,0,-1,208.1667,84.33469)"
         id="g116"><text
           transform="translate(21.49609,4)"
           id="text118"><tspan
             x="0"
             y="0"
             id="tspan120"
             style="font-size:12px;font-variant:normal;font-weight:normal;writing-mode:lr-tb;fill:#000000;fill-opacity:1;fill-rule:nonzero;stroke:none;font-family:Helvetica;-inkscape-font-specification:Helvetica">A</tspan></text>
</g><g
         transform="matrix(1,0,0,-1,207.6667,28)"
         id="g122"><text
           transform="translate(-29.36719,4)"
           id="text124"><tspan
             x="0 8.0039997 14.6784 21.3528 28.027201 31.3608 37.360802 44.035198 48.0312 51.364799"
             y="0"
             id="tspan126"
             style="font-size:12px;font-variant:normal;font-weight:normal;writing-mode:lr-tb;fill:#000000;fill-opacity:1;fill-rule:nonzero;stroke:none;font-family:Helvetica;-inkscape-font-specification:Helvetica">Benutzer B</tspan></text>
</g></g></g></svg>