<?xml version="1.0" encoding="UTF-8" standalone="no"?>
<!-- Created with Inkscape (http://www.inkscape.org/) -->

<svg
   xmlns:svg="http://www.w3.org/2000/svg"
   xmlns="http://www.w3.org/2000/svg"
   version="1.1"
   width="277.5"
   height="561.25"
   id="svg2"
   xml:space="preserve"><defs
     id="defs6" /><g
     transform="matrix(1.25,0,0,-1.25,0,561.25)"
     id="g12"><g
       id="g14" /><g
       id="g16"><path
         d="M 0,0 222,0 222,449 0,449 0,0 z"
         id="path18"
         style="fill:#ffffff;fill-opacity:1;fill-rule:nonzero;stroke:none" /><path
         d="m 156.8034,386.9341 13.1609,23.6424 c 1.3431,2.4128 4.3878,3.2799 6.8006,1.9368 0.8133,-0.4527 1.4841,-1.1235 1.9368,-1.9368 l 13.1609,-23.6424 c 1.3431,-2.4127 0.476,-5.4575 -1.9368,-6.8006 -0.7437,-0.414 -1.5808,-0.6313 -2.4319,-0.6313 l -26.3218,0 c -2.7614,0 -5,2.2386 -5,5 0,0.8512 0.2173,1.6883 0.6313,2.4319 z"
         id="path20"
         style="fill:#ffffff;fill-opacity:1;fill-rule:nonzero;stroke:none" /><g
         transform="matrix(1,0,0,-1,-95.5,475.5)"
         id="g22"><path
           d="m 252.3034,88.56586 13.1609,-23.64234 c 1.3431,-2.41278 4.3878,-3.27993 6.8006,-1.93683 0.8133,0.45273 1.4841,1.12351 1.9368,1.93683 l 13.1609,23.64234 c 1.3431,2.41278 0.476,5.45752 -1.9368,6.80063 -0.7437,0.414 -1.5808,0.63128 -2.4319,0.63128 l -26.3218,0 c -2.7614,0 -5,-2.23858 -5,-5 0,-0.85116 0.2173,-1.68823 0.6313,-2.43191 z"
           id="path24"
           style="fill:none;stroke:#000000;stroke-width:1;stroke-linecap:round;stroke-linejoin:round;stroke-miterlimit:10;stroke-opacity:1;stroke-dasharray:none" /></g><path
         d="m 182.3748,421.9094 c 4.4417,-4.7874 4.4417,-12.5494 0,-17.3368 -4.4417,-4.7874 -11.643,-4.7874 -16.0847,0 -4.4417,4.7874 -4.4417,12.5494 0,17.3368 4.4417,4.7875 11.643,4.7875 16.0847,0"
         id="path26"
         style="fill:#ffffff;fill-opacity:1;fill-rule:nonzero;stroke:none" /><g
         transform="matrix(1,0,0,-1,-95.5,475.5)"
         id="g28"><path
           d="m 277.8748,53.59058 c 4.4417,4.78741 4.4417,12.54937 0,17.33682 -4.4417,4.78744 -11.643,4.78744 -16.0847,0 -4.4417,-4.78745 -4.4417,-12.54941 0,-17.33682 4.4417,-4.78748 11.643,-4.78748 16.0847,0"
           id="path30"
           style="fill:none;stroke:#000000;stroke-width:1;stroke-linecap:round;stroke-linejoin:round;stroke-miterlimit:10;stroke-opacity:1;stroke-dasharray:none" /></g><path
         d="m 162.4704,380.9282 13.1609,23.6423 c 1.3431,2.4128 4.3878,3.2799 6.8006,1.9368 0.8133,-0.4527 1.4841,-1.1235 1.9368,-1.9368 l 13.1609,-23.6423 c 1.3431,-2.4128 0.476,-5.4576 -1.9368,-6.8007 -0.7437,-0.414 -1.5808,-0.6313 -2.4319,-0.6313 l -26.3218,0 c -2.7614,0 -5,2.2386 -5,5 0,0.8512 0.2173,1.6882 0.6313,2.432 z"
         id="path32"
         style="fill:#ffffff;fill-opacity:1;fill-rule:nonzero;stroke:none" /><g
         transform="matrix(1,0,0,-1,-95.5,475.5)"
         id="g34"><path
           d="M 257.9704,94.57184 271.1313,70.9295 c 1.3431,-2.41278 4.3878,-3.2799 6.8006,-1.93682 0.8133,0.45275 1.4841,1.12353 1.9368,1.93682 l 13.1609,23.64234 c 1.3431,2.41278 0.476,5.45756 -1.9368,6.80066 -0.7437,0.414 -1.5808,0.6313 -2.4319,0.6313 l -26.3218,0 c -2.7614,0 -5,-2.2386 -5,-5.00005 0,-0.85116 0.2173,-1.6882 0.6313,-2.43191 z"
           id="path36"
           style="fill:none;stroke:#000000;stroke-width:1;stroke-linecap:round;stroke-linejoin:round;stroke-miterlimit:10;stroke-opacity:1;stroke-dasharray:none" /></g><path
         d="m 188.0418,415.9034 c 4.4417,-4.7874 4.4417,-12.5493 0,-17.3368 -4.4417,-4.7874 -11.643,-4.7874 -16.0847,0 -4.4417,4.7875 -4.4417,12.5494 0,17.3368 4.4417,4.7875 11.643,4.7875 16.0847,0"
         id="path38"
         style="fill:#ffffff;fill-opacity:1;fill-rule:nonzero;stroke:none" /><g
         transform="matrix(1,0,0,-1,-95.5,475.5)"
         id="g40"><path
           d="m 283.5418,59.59656 c 4.4417,4.78741 4.4417,12.54938 0,17.33682 -4.4417,4.78745 -11.643,4.78745 -16.0847,0 -4.4417,-4.78744 -4.4417,-12.54941 0,-17.33682 4.4417,-4.78748 11.643,-4.78748 16.0847,0"
           id="path42"
           style="fill:none;stroke:#000000;stroke-width:1;stroke-linecap:round;stroke-linejoin:round;stroke-miterlimit:10;stroke-opacity:1;stroke-dasharray:none" /></g><path
         d="m 168.4704,374.2621 13.1609,23.6424 c 1.3431,2.4128 4.3878,3.2799 6.8006,1.9368 0.8133,-0.4528 1.4841,-1.1235 1.9368,-1.9368 l 13.1609,-23.6424 c 1.3431,-2.4128 0.476,-5.4575 -1.9368,-6.8006 -0.7437,-0.414 -1.5808,-0.6313 -2.4319,-0.6313 l -26.3218,0 c -2.7614,0 -5,2.2386 -5,5 0,0.8512 0.2173,1.6882 0.6313,2.4319 z"
         id="path44"
         style="fill:#ffffff;fill-opacity:1;fill-rule:nonzero;stroke:none" /><g
         transform="matrix(1,0,0,-1,-95.5,475.5)"
         id="g46"><path
           d="m 263.9704,101.2379 13.1609,-23.64238 c 1.3431,-2.41278 4.3878,-3.27991 6.8006,-1.9368 0.8133,0.45273 1.4841,1.12351 1.9368,1.9368 l 13.1609,23.64238 c 1.3431,2.4128 0.476,5.4575 -1.9368,6.8006 -0.7437,0.414 -1.5808,0.6313 -2.4319,0.6313 l -26.3218,0 c -2.7614,0 -5,-2.2386 -5,-5 0,-0.8512 0.2173,-1.6882 0.6313,-2.4319 z"
           id="path48"
           style="fill:none;stroke:#000000;stroke-width:1;stroke-linecap:round;stroke-linejoin:round;stroke-miterlimit:10;stroke-opacity:1;stroke-dasharray:none" /></g><path
         d="m 194.0418,409.2374 c 4.4417,-4.7874 4.4417,-12.5494 0,-17.3368 -4.4417,-4.7874 -11.643,-4.7874 -16.0847,0 -4.4417,4.7874 -4.4417,12.5494 0,17.3368 4.4417,4.7875 11.643,4.7875 16.0847,0"
         id="path50"
         style="fill:#ffffff;fill-opacity:1;fill-rule:nonzero;stroke:none" /><g
         transform="matrix(1,0,0,-1,-95.5,475.5)"
         id="g52"><path
           d="m 289.5418,66.26257 c 4.4417,4.78742 4.4417,12.54938 0,17.3368 -4.4417,4.78747 -11.643,4.78747 -16.0847,0 -4.4417,-4.78742 -4.4417,-12.54938 0,-17.3368 4.4417,-4.78747 11.643,-4.78747 16.0847,0"
           id="path54"
           style="fill:none;stroke:#000000;stroke-width:1;stroke-linecap:round;stroke-linejoin:round;stroke-miterlimit:10;stroke-opacity:1;stroke-dasharray:none" /></g><g
         transform="matrix(1,0,0,-1,180.5,354)"
         id="g56"><text
           transform="translate(-25.20703,4)"
           id="text58"><tspan
             x="0 9.3336 13.3296 20.004 26.6784 33.352798 40.027199"
             y="0"
             id="tspan60"
             style="font-size:12px;font-variant:normal;font-weight:normal;writing-mode:lr-tb;fill:#000000;fill-opacity:1;fill-rule:nonzero;stroke:none;font-family:Helvetica;-inkscape-font-specification:Helvetica">Gruppe </tspan></text>
</g><g
         transform="matrix(1,0,0,-1,180.5,354)"
         id="g62"><text
           transform="translate(17.49609,4)"
           id="text64"><tspan
             x="0"
             y="0"
             id="tspan66"
             style="font-size:12px;font-variant:normal;font-weight:normal;writing-mode:lr-tb;fill:#000000;fill-opacity:1;fill-rule:nonzero;stroke:none;font-family:Helvetica;-inkscape-font-specification:Helvetica">A</tspan></text>
</g><path
         d="m 20.50001,397.5 80.33329,0 c 2.7614,0 5,-2.2386 5,-5 l 0,-11 c 0,-2.7614 -2.2386,-5 -5,-5 l -80.33329,0 c -2.76142,0 -5,2.2386 -5,5 0,0 0,0 0,0 l 0,11 c 0,2.7614 2.23858,5 5,5 z"
         id="path68"
         style="fill:#ffffff;fill-opacity:1;fill-rule:nonzero;stroke:none" /><g
         transform="matrix(1,0,0,-1,-95.5,475.5)"
         id="g70"><path
           d="m 116,78 80.3333,0 c 2.7614,0 5,2.23859 5,5 l 0,11 c 0,2.76141 -2.2386,5 -5,5 L 116,99 c -2.7614,0 -5,-2.23859 -5,-5 0,0 0,0 0,0 l 0,-11 c 0,-2.76141 2.2386,-5 5,-5 z"
           id="path72"
           style="fill:none;stroke:#000000;stroke-width:1;stroke-linecap:round;stroke-linejoin:round;stroke-miterlimit:10;stroke-opacity:1;stroke-dasharray:none" /></g><g
         transform="matrix(1,0,0,-1,60.16666,387.5)"
         id="g74"><text
           transform="translate(-23.68652,4)"
           id="text76"><tspan
             x="0 8.0039997 14.6784 20.6784 27.3528 34.027199 40.701599"
             y="0"
             id="tspan78"
             style="font-size:12px;font-variant:normal;font-weight:normal;writing-mode:lr-tb;fill:#000000;fill-opacity:1;fill-rule:nonzero;stroke:none;font-family:Helvetica;-inkscape-font-specification:Helvetica">Ansehen</tspan></text>
</g><g
         transform="matrix(1,0,0,-1,-95.5,475.5)"
         id="g80"><path
           d="M 201.8333,88.40994 229.433,88.35553"
           id="path82"
           style="fill:none;stroke:#000000;stroke-width:1;stroke-linecap:round;stroke-linejoin:round;stroke-miterlimit:10;stroke-opacity:1;stroke-dasharray:none" /></g><path
         d="m 141.933,387.1602 -8.0059,2.9843 0.0118,-6 7.9941,3.0157 z"
         id="path84"
         style="fill:#000000;fill-opacity:1;fill-rule:nonzero;stroke:none" /><g
         transform="matrix(1,0,0,-1,-95.5,475.5)"
         id="g86"><path
           d="m 237.433,88.33975 -8.0059,-2.98422 0.0118,6 7.9941,-3.01578 z"
           id="path88"
           style="fill:none;stroke:#000000;stroke-width:1;stroke-linecap:butt;stroke-linejoin:miter;stroke-miterlimit:10;stroke-opacity:1;stroke-dasharray:none" /></g><path
         d="m 156.8036,285.2675 13.1608,23.6424 c 1.3432,2.4128 4.3879,3.2799 6.8007,1.9368 0.8133,-0.4527 1.484,-1.1235 1.9368,-1.9368 l 13.1608,-23.6424 c 1.3431,-2.4127 0.476,-5.4575 -1.9368,-6.8006 -0.7436,-0.414 -1.5807,-0.6313 -2.4319,-0.6313 l -26.3217,0 c -2.7614,0 -5,2.2386 -5,5 0,0.8512 0.2173,1.6883 0.6313,2.4319 z"
         id="path90"
         style="fill:#ffffff;fill-opacity:1;fill-rule:nonzero;stroke:none" /><g
         transform="matrix(1,0,0,-1,-95.5,475.5)"
         id="g92"><path
           d="m 252.3036,190.2325 13.1608,-23.6424 c 1.3432,-2.4128 4.3879,-3.2799 6.8007,-1.9368 0.8133,0.4527 1.484,1.1235 1.9368,1.9368 l 13.1608,23.6424 c 1.3431,2.4127 0.476,5.4575 -1.9368,6.8006 -0.7436,0.414 -1.5807,0.6313 -2.4319,0.6313 l -26.3217,0 c -2.7614,0 -5,-2.2386 -5,-5 0,-0.8512 0.2173,-1.6883 0.6313,-2.4319 z"
           id="path94"
           style="fill:none;stroke:#000000;stroke-width:1;stroke-linecap:round;stroke-linejoin:round;stroke-miterlimit:10;stroke-opacity:1;stroke-dasharray:none" /></g><path
         d="m 182.3749,320.2429 c 4.4418,-4.7875 4.4418,-12.5494 0,-17.3369 -4.4416,-4.7874 -11.643,-4.7874 -16.0846,0 -4.4417,4.7875 -4.4417,12.5494 0,17.3369 4.4416,4.7874 11.643,4.7874 16.0846,0"
         id="path96"
         style="fill:#ffffff;fill-opacity:1;fill-rule:nonzero;stroke:none" /><g
         transform="matrix(1,0,0,-1,-95.5,475.5)"
         id="g98"><path
           d="m 277.8749,155.2571 c 4.4418,4.7875 4.4418,12.5494 0,17.3369 -4.4416,4.7874 -11.643,4.7874 -16.0846,0 -4.4417,-4.7875 -4.4417,-12.5494 0,-17.3369 4.4416,-4.7874 11.643,-4.7874 16.0846,0"
           id="path100"
           style="fill:none;stroke:#000000;stroke-width:1;stroke-linecap:round;stroke-linejoin:round;stroke-miterlimit:10;stroke-opacity:1;stroke-dasharray:none" /></g><path
         d="m 162.4706,279.2615 13.1608,23.6424 c 1.3431,2.4128 4.3879,3.2799 6.8007,1.9368 0.8133,-0.4528 1.484,-1.1235 1.9368,-1.9368 l 13.1608,-23.6424 c 1.3431,-2.4127 0.476,-5.4575 -1.9368,-6.8006 -0.7437,-0.414 -1.5807,-0.6313 -2.4319,-0.6313 l -26.3217,0 c -2.7614,0 -5,2.2386 -5,5 0,0.8512 0.2172,1.6882 0.6313,2.4319 z"
         id="path102"
         style="fill:#ffffff;fill-opacity:1;fill-rule:nonzero;stroke:none" /><g
         transform="matrix(1,0,0,-1,-95.5,475.5)"
         id="g104"><path
           d="m 257.9706,196.2385 13.1608,-23.6424 c 1.3431,-2.4128 4.3879,-3.2799 6.8007,-1.9368 0.8133,0.4528 1.484,1.1235 1.9368,1.9368 l 13.1608,23.6424 c 1.3431,2.4127 0.476,5.4575 -1.9368,6.8006 -0.7437,0.414 -1.5807,0.6313 -2.4319,0.6313 l -26.3217,0 c -2.7614,0 -5,-2.2386 -5,-5 0,-0.8512 0.2172,-1.6882 0.6313,-2.4319 z"
           id="path106"
           style="fill:none;stroke:#000000;stroke-width:1;stroke-linecap:round;stroke-linejoin:round;stroke-miterlimit:10;stroke-opacity:1;stroke-dasharray:none" /></g><path
         d="m 188.0419,314.2368 c 4.4417,-4.7874 4.4417,-12.5494 0,-17.3368 -4.4416,-4.7875 -11.643,-4.7875 -16.0846,0 -4.4417,4.7874 -4.4417,12.5494 0,17.3368 4.4416,4.7875 11.643,4.7875 16.0846,0"
         id="path108"
         style="fill:#ffffff;fill-opacity:1;fill-rule:nonzero;stroke:none" /><g
         transform="matrix(1,0,0,-1,-95.5,475.5)"
         id="g110"><path
           d="m 283.5419,161.2632 c 4.4417,4.7874 4.4417,12.5494 0,17.3368 -4.4416,4.7875 -11.643,4.7875 -16.0846,0 -4.4417,-4.7874 -4.4417,-12.5494 0,-17.3368 4.4416,-4.7875 11.643,-4.7875 16.0846,0"
           id="path112"
           style="fill:none;stroke:#000000;stroke-width:1;stroke-linecap:round;stroke-linejoin:round;stroke-miterlimit:10;stroke-opacity:1;stroke-dasharray:none" /></g><path
         d="m 168.4706,272.5955 13.1608,23.6424 c 1.3431,2.4127 4.3879,3.2799 6.8007,1.9368 0.8133,-0.4528 1.484,-1.1236 1.9368,-1.9368 l 13.1608,-23.6424 c 1.3431,-2.4128 0.476,-5.4575 -1.9368,-6.8006 -0.7437,-0.414 -1.5807,-0.6313 -2.4319,-0.6313 l -26.3217,0 c -2.7614,0 -5,2.2386 -5,5 0,0.8512 0.2172,1.6882 0.6313,2.4319 z"
         id="path114"
         style="fill:#ffffff;fill-opacity:1;fill-rule:nonzero;stroke:none" /><g
         transform="matrix(1,0,0,-1,-95.5,475.5)"
         id="g116"><path
           d="m 263.9706,202.9045 13.1608,-23.6424 c 1.3431,-2.4127 4.3879,-3.2799 6.8007,-1.9368 0.8133,0.4528 1.484,1.1236 1.9368,1.9368 l 13.1608,23.6424 c 1.3431,2.4128 0.476,5.4575 -1.9368,6.8006 -0.7437,0.414 -1.5807,0.6313 -2.4319,0.6313 l -26.3217,0 c -2.7614,0 -5,-2.2386 -5,-5 0,-0.8512 0.2172,-1.6882 0.6313,-2.4319 z"
           id="path118"
           style="fill:none;stroke:#000000;stroke-width:1;stroke-linecap:round;stroke-linejoin:round;stroke-miterlimit:10;stroke-opacity:1;stroke-dasharray:none" /></g><path
         d="m 194.0419,307.5709 c 4.4417,-4.7875 4.4417,-12.5494 0,-17.3369 -4.4416,-4.7874 -11.643,-4.7874 -16.0846,0 -4.4417,4.7875 -4.4417,12.5494 0,17.3369 4.4416,4.7874 11.643,4.7874 16.0846,0"
         id="path120"
         style="fill:#ffffff;fill-opacity:1;fill-rule:nonzero;stroke:none" /><g
         transform="matrix(1,0,0,-1,-95.5,475.5)"
         id="g122"><path
           d="m 289.5419,167.9291 c 4.4417,4.7875 4.4417,12.5494 0,17.3369 -4.4416,4.7874 -11.643,4.7874 -16.0846,0 -4.4417,-4.7875 -4.4417,-12.5494 0,-17.3369 4.4416,-4.7874 11.643,-4.7874 16.0846,0"
           id="path124"
           style="fill:none;stroke:#000000;stroke-width:1;stroke-linecap:round;stroke-linejoin:round;stroke-miterlimit:10;stroke-opacity:1;stroke-dasharray:none" /></g><g
         transform="matrix(1,0,0,-1,180,252.3334)"
         id="g126"><text
           transform="translate(-25.36328,4)"
           id="text128"><tspan
             x="0 9.3336 13.3296 20.004 26.6784 33.352798 40.027199 43.360802"
             y="0"
             id="tspan130"
             style="font-size:12px;font-variant:normal;font-weight:normal;writing-mode:lr-tb;fill:#000000;fill-opacity:1;fill-rule:nonzero;stroke:none;font-family:Helvetica;-inkscape-font-specification:Helvetica">Gruppe B</tspan></text>
</g><path
         d="m 20.50001,295.8334 80.33329,0 c 2.7614,0 5,-2.2386 5,-5 l 0,-11 c 0,-2.7614 -2.2386,-5 -5,-5 l -80.33329,0 c -2.76142,0 -5,2.2386 -5,5 0,0 0,0 0,0 l 0,11 c 0,2.7614 2.23858,5 5,5 z"
         id="path132"
         style="fill:#ffffff;fill-opacity:1;fill-rule:nonzero;stroke:none" /><g
         transform="matrix(1,0,0,-1,-95.5,475.5)"
         id="g134"><path
           d="m 116,179.6666 80.3333,0 c 2.7614,0 5,2.2386 5,5 l 0,11 c 0,2.7614 -2.2386,5 -5,5 l -80.3333,0 c -2.7614,0 -5,-2.2386 -5,-5 0,0 0,0 0,0 l 0,-11 c 0,-2.7614 2.2386,-5 5,-5 z"
           id="path136"
           style="fill:none;stroke:#000000;stroke-width:1;stroke-linecap:round;stroke-linejoin:round;stroke-miterlimit:10;stroke-opacity:1;stroke-dasharray:none" /></g><g
         transform="matrix(1,0,0,-1,60.16666,285.8334)"
         id="g138"><text
           transform="translate(-31.01953,4)"
           id="text140"><tspan
             x="0 8.0039997 14.6784 18.6744 25.348801 29.344801 36.019199 42.6936 45.360001 48.6936 55.368"
             y="0"
             id="tspan142"
             style="font-size:12px;font-variant:normal;font-weight:normal;writing-mode:lr-tb;fill:#000000;fill-opacity:1;fill-rule:nonzero;stroke:none;font-family:Helvetica;-inkscape-font-specification:Helvetica">Berarbeiten</tspan></text>
</g><g
         transform="matrix(1,0,0,-1,-95.5,475.5)"
         id="g144"><path
           d="m 201.8333,190.0765 27.5997,-0.0544"
           id="path146"
           style="fill:none;stroke:#000000;stroke-width:1;stroke-linecap:round;stroke-linejoin:round;stroke-miterlimit:10;stroke-opacity:1;stroke-dasharray:none" /></g><path
         d="m 141.933,285.4937 -8.0059,2.9842 0.0118,-5.9999 7.9941,3.0157 z"
         id="path148"
         style="fill:#000000;fill-opacity:1;fill-rule:nonzero;stroke:none" /><g
         transform="matrix(1,0,0,-1,-95.5,475.5)"
         id="g150"><path
           d="m 237.433,190.0063 -8.0059,-2.9842 0.0118,5.9999 7.9941,-3.0157 z"
           id="path152"
           style="fill:none;stroke:#000000;stroke-width:1;stroke-linecap:butt;stroke-linejoin:miter;stroke-miterlimit:10;stroke-opacity:1;stroke-dasharray:none" /></g><g
         transform="matrix(1,0,0,-1,-95.5,475.5)"
         id="g154"><path
           d="m 103,28.66666 208,0 c 2.7614,0 5,2.23858 5,5 l 0,206.66674 c 0,2.7614 -2.2386,5 -5,5 l -208,0 c -2.7614,0 -5,-2.2386 -5,-5 0,0 0,0 0,0 l -1e-5,-206.66674 c 0,-2.76142 2.23861,-5 5.00001,-5 0,0 0,0 0,0 z"
           id="path156"
           style="fill:none;stroke:#000000;stroke-width:1;stroke-linecap:round;stroke-linejoin:round;stroke-miterlimit:10;stroke-opacity:1;stroke-dasharray:none" /></g><g
         transform="matrix(1,0,0,-1,111,339)"
         id="g158"><text
           transform="translate(-32.7832,-87.33336)"
           id="text160"><tspan
             x="0 3.3336 10.6632 13.9968 23.3304 27.996 35.3256 42.655201 49.324799 53.990398"
             y="0"
             id="tspan162"
             style="font-size:12px;font-variant:normal;font-weight:bold;writing-mode:lr-tb;fill:#000000;fill-opacity:1;fill-rule:nonzero;stroke:none;font-family:Helvetica;-inkscape-font-specification:Helvetica-Bold">In Ordner </tspan></text>
</g><g
         transform="matrix(1,0,0,-1,111,339)"
         id="g164"><text
           transform="translate(24.11719,-87.33336)"
           id="text166"><tspan
             x="0"
             y="0"
             id="tspan168"
             style="font-size:12px;font-variant:normal;font-weight:bold;writing-mode:lr-tb;fill:#000000;fill-opacity:1;fill-rule:nonzero;stroke:none;font-family:Helvetica;-inkscape-font-specification:Helvetica-Bold">A</tspan></text>
</g><g
         transform="matrix(1,0,0,-1,-95.5,475.5)"
         id="g170"><path
           d="m 103,257 208,0 c 2.7614,0 5,2.2386 5,5 l 0,206.667 c 0,2.7614 -2.2386,5 -5,5 l -208,0 c -2.7614,0 -5,-2.2386 -5,-5 0,0 0,0 0,0 L 97.99999,262 c 0,-2.7614 2.23861,-5 5.00001,-5 0,0 0,0 0,0 z"
           id="path172"
           style="fill:none;stroke:#000000;stroke-width:1;stroke-linecap:round;stroke-linejoin:round;stroke-miterlimit:10;stroke-opacity:1;stroke-dasharray:none" /></g><g
         transform="matrix(1,0,0,-1,111,110.6665)"
         id="g174"><text
           transform="translate(-33.00293,-87.3335)"
           id="text176"><tspan
             x="0 3.3336 10.6632 13.9968 23.3304 27.996 35.3256 42.655201 49.324799 53.990398 57.324001"
             y="0"
             id="tspan178"
             style="font-size:12px;font-variant:normal;font-weight:bold;writing-mode:lr-tb;fill:#000000;fill-opacity:1;fill-rule:nonzero;stroke:none;font-family:Helvetica;-inkscape-font-specification:Helvetica-Bold">In Ordner B</tspan></text>
</g><path
         d="m 156.8036,158.6008 13.1608,23.6423 c 1.3432,2.4128 4.3879,3.2799 6.8007,1.9368 0.8133,-0.4527 1.484,-1.1235 1.9368,-1.9368 l 13.1608,-23.6423 c 1.3431,-2.4128 0.476,-5.4575 -1.9368,-6.8006 -0.7436,-0.414 -1.5807,-0.6313 -2.4319,-0.6313 l -26.3217,0 c -2.7614,0 -5,2.2386 -5,5 0,0.8512 0.2173,1.6882 0.6313,2.4319 z"
         id="path180"
         style="fill:#ffffff;fill-opacity:1;fill-rule:nonzero;stroke:none" /><g
         transform="matrix(1,0,0,-1,-95.5,475.5)"
         id="g182"><path
           d="m 252.3036,316.8992 13.1608,-23.6423 c 1.3432,-2.4128 4.3879,-3.2799 6.8007,-1.9368 0.8133,0.4527 1.484,1.1235 1.9368,1.9368 l 13.1608,23.6423 c 1.3431,2.4128 0.476,5.4575 -1.9368,6.8006 -0.7436,0.414 -1.5807,0.6313 -2.4319,0.6313 l -26.3217,0 c -2.7614,0 -5,-2.2386 -5,-5 0,-0.8512 0.2173,-1.6882 0.6313,-2.4319 z"
           id="path184"
           style="fill:none;stroke:#000000;stroke-width:1;stroke-linecap:round;stroke-linejoin:round;stroke-miterlimit:10;stroke-opacity:1;stroke-dasharray:none" /></g><path
         d="m 182.375,193.5761 c 4.4417,-4.7874 4.4417,-12.5494 0,-17.3368 -4.4417,-4.7875 -11.643,-4.7875 -16.0847,0 -4.4417,4.7874 -4.4417,12.5494 0,17.3368 4.4417,4.7875 11.643,4.7875 16.0847,0"
         id="path186"
         style="fill:#ffffff;fill-opacity:1;fill-rule:nonzero;stroke:none" /><g
         transform="matrix(1,0,0,-1,-95.5,475.5)"
         id="g188"><path
           d="m 277.875,281.9239 c 4.4417,4.7874 4.4417,12.5494 0,17.3368 -4.4417,4.7875 -11.643,4.7875 -16.0847,0 -4.4417,-4.7874 -4.4417,-12.5494 0,-17.3368 4.4417,-4.7875 11.643,-4.7875 16.0847,0"
           id="path190"
           style="fill:none;stroke:#000000;stroke-width:1;stroke-linecap:round;stroke-linejoin:round;stroke-miterlimit:10;stroke-opacity:1;stroke-dasharray:none" /></g><path
         d="m 162.4706,152.5948 13.1608,23.6424 c 1.3431,2.4127 4.3879,3.2799 6.8007,1.9368 0.8133,-0.4528 1.484,-1.1236 1.9368,-1.9368 l 13.1608,-23.6424 c 1.3431,-2.4128 0.476,-5.4575 -1.9368,-6.8006 -0.7437,-0.414 -1.5807,-0.6313 -2.4319,-0.6313 l -26.3217,0 c -2.7614,0 -5,2.2386 -5,5 0,0.8512 0.2172,1.6882 0.6313,2.4319 z"
         id="path192"
         style="fill:#ffffff;fill-opacity:1;fill-rule:nonzero;stroke:none" /><g
         transform="matrix(1,0,0,-1,-95.5,475.5)"
         id="g194"><path
           d="m 257.9706,322.9052 13.1608,-23.6424 c 1.3431,-2.4127 4.3879,-3.2799 6.8007,-1.9368 0.8133,0.4528 1.484,1.1236 1.9368,1.9368 l 13.1608,23.6424 c 1.3431,2.4128 0.476,5.4575 -1.9368,6.8006 -0.7437,0.414 -1.5807,0.6313 -2.4319,0.6313 l -26.3217,0 c -2.7614,0 -5,-2.2386 -5,-5 0,-0.8512 0.2172,-1.6882 0.6313,-2.4319 z"
           id="path196"
           style="fill:none;stroke:#000000;stroke-width:1;stroke-linecap:round;stroke-linejoin:round;stroke-miterlimit:10;stroke-opacity:1;stroke-dasharray:none" /></g><path
         d="m 188.0419,187.5701 c 4.4417,-4.7874 4.4417,-12.5494 0,-17.3368 -4.4416,-4.7875 -11.643,-4.7875 -16.0846,0 -4.4417,4.7874 -4.4417,12.5494 0,17.3368 4.4416,4.7875 11.643,4.7875 16.0846,0"
         id="path198"
         style="fill:#ffffff;fill-opacity:1;fill-rule:nonzero;stroke:none" /><g
         transform="matrix(1,0,0,-1,-95.5,475.5)"
         id="g200"><path
           d="m 283.5419,287.9299 c 4.4417,4.7874 4.4417,12.5494 0,17.3368 -4.4416,4.7875 -11.643,4.7875 -16.0846,0 -4.4417,-4.7874 -4.4417,-12.5494 0,-17.3368 4.4416,-4.7875 11.643,-4.7875 16.0846,0"
           id="path202"
           style="fill:none;stroke:#000000;stroke-width:1;stroke-linecap:round;stroke-linejoin:round;stroke-miterlimit:10;stroke-opacity:1;stroke-dasharray:none" /></g><path
         d="m 168.4706,145.9288 13.1608,23.6423 c 1.3431,2.4128 4.3879,3.2799 6.8007,1.9368 0.8133,-0.4527 1.484,-1.1235 1.9368,-1.9368 l 13.1608,-23.6423 c 1.3431,-2.4128 0.476,-5.4575 -1.9368,-6.8007 -0.7437,-0.414 -1.5807,-0.6312 -2.4319,-0.6312 l -26.3217,0 c -2.7614,0 -5,2.2385 -5,5 0,0.8511 0.2172,1.6882 0.6313,2.4319 z"
         id="path204"
         style="fill:#ffffff;fill-opacity:1;fill-rule:nonzero;stroke:none" /><g
         transform="matrix(1,0,0,-1,-95.5,475.5)"
         id="g206"><path
           d="m 263.9706,329.5712 13.1608,-23.6423 c 1.3431,-2.4128 4.3879,-3.2799 6.8007,-1.9368 0.8133,0.4527 1.484,1.1235 1.9368,1.9368 l 13.1608,23.6423 c 1.3431,2.4128 0.476,5.4575 -1.9368,6.8007 -0.7437,0.414 -1.5807,0.6312 -2.4319,0.6312 l -26.3217,0 c -2.7614,0 -5,-2.2385 -5,-5 0,-0.8511 0.2172,-1.6882 0.6313,-2.4319 z"
           id="path208"
           style="fill:none;stroke:#000000;stroke-width:1;stroke-linecap:round;stroke-linejoin:round;stroke-miterlimit:10;stroke-opacity:1;stroke-dasharray:none" /></g><path
         d="m 194.0419,180.9041 c 4.4417,-4.7874 4.4417,-12.5494 0,-17.3368 -4.4416,-4.7875 -11.643,-4.7875 -16.0846,0 -4.4417,4.7874 -4.4417,12.5494 0,17.3368 4.4416,4.7875 11.643,4.7875 16.0846,0"
         id="path210"
         style="fill:#ffffff;fill-opacity:1;fill-rule:nonzero;stroke:none" /><g
         transform="matrix(1,0,0,-1,-95.5,475.5)"
         id="g212"><path
           d="m 289.5419,294.5959 c 4.4417,4.7874 4.4417,12.5494 0,17.3368 -4.4416,4.7875 -11.643,4.7875 -16.0846,0 -4.4417,-4.7874 -4.4417,-12.5494 0,-17.3368 4.4416,-4.7875 11.643,-4.7875 16.0846,0"
           id="path214"
           style="fill:none;stroke:#000000;stroke-width:1;stroke-linecap:round;stroke-linejoin:round;stroke-miterlimit:10;stroke-opacity:1;stroke-dasharray:none" /></g><g
         transform="matrix(1,0,0,-1,180.5,125.6667)"
         id="g216"><text
           transform="translate(-25.20703,4)"
           id="text218"><tspan
             x="0 9.3336 13.3296 20.004 26.6784 33.352798 40.027199"
             y="0"
             id="tspan220"
             style="font-size:12px;font-variant:normal;font-weight:normal;writing-mode:lr-tb;fill:#000000;fill-opacity:1;fill-rule:nonzero;stroke:none;font-family:Helvetica;-inkscape-font-specification:Helvetica">Gruppe </tspan></text>
</g><g
         transform="matrix(1,0,0,-1,180.5,125.6667)"
         id="g222"><text
           transform="translate(17.49609,4)"
           id="text224"><tspan
             x="0"
             y="0"
             id="tspan226"
             style="font-size:12px;font-variant:normal;font-weight:normal;writing-mode:lr-tb;fill:#000000;fill-opacity:1;fill-rule:nonzero;stroke:none;font-family:Helvetica;-inkscape-font-specification:Helvetica">A</tspan></text>
</g><path
         d="m 20.50001,169.1667 80.33329,0 c 2.7614,0 5,-2.2386 5,-5 l 0,-11 c 0,-2.7614 -2.2386,-5 -5,-5 l -80.33329,0 c -2.76142,0 -5,2.2386 -5,5 0,0 0,0 0,0 l 0,11 c 0,2.7614 2.23858,5 5,5 z"
         id="path228"
         style="fill:#ffffff;fill-opacity:1;fill-rule:nonzero;stroke:none" /><g
         transform="matrix(1,0,0,-1,-95.5,475.5)"
         id="g230"><path
           d="m 116,306.3333 80.3333,0 c 2.7614,0 5,2.2386 5,5 l 0,11 c 0,2.7614 -2.2386,5 -5,5 l -80.3333,0 c -2.7614,0 -5,-2.2386 -5,-5 0,0 0,0 0,0 l 0,-11 c 0,-2.7614 2.2386,-5 5,-5 z"
           id="path232"
           style="fill:none;stroke:#000000;stroke-width:1;stroke-linecap:round;stroke-linejoin:round;stroke-miterlimit:10;stroke-opacity:1;stroke-dasharray:none" /></g><g
         transform="matrix(1,0,0,-1,60.16666,159.1667)"
         id="g234"><text
           transform="translate(-29.02148,4)"
           id="text236"><tspan
             x="0 8.0039997 14.6784 21.3528 25.348801 32.023201 38.697601 41.363998 44.697601 51.372002"
             y="0"
             id="tspan238"
             style="font-size:12px;font-variant:normal;font-weight:normal;writing-mode:lr-tb;fill:#000000;fill-opacity:1;fill-rule:nonzero;stroke:none;font-family:Helvetica;-inkscape-font-specification:Helvetica">Bearbeiten</tspan></text>
</g><g
         transform="matrix(1,0,0,-1,-95.5,475.5)"
         id="g240"><path
           d="m 201.8333,316.7433 27.5997,-0.0545"
           id="path242"
           style="fill:none;stroke:#000000;stroke-width:1;stroke-linecap:round;stroke-linejoin:round;stroke-miterlimit:10;stroke-opacity:1;stroke-dasharray:none" /></g><path
         d="m 141.933,158.8269 -8.0059,2.9843 0.0118,-6 7.9941,3.0157 z"
         id="path244"
         style="fill:#000000;fill-opacity:1;fill-rule:nonzero;stroke:none" /><g
         transform="matrix(1,0,0,-1,-95.5,475.5)"
         id="g246"><path
           d="m 237.433,316.6731 -8.0059,-2.9843 0.0118,6 7.9941,-3.0157 z"
           id="path248"
           style="fill:none;stroke:#000000;stroke-width:1;stroke-linecap:butt;stroke-linejoin:miter;stroke-miterlimit:10;stroke-opacity:1;stroke-dasharray:none" /></g><path
         d="m 156.8036,56.93378 13.1608,23.64233 c 1.3432,2.41278 4.3879,3.27991 6.8007,1.9368 0.8133,-0.45273 1.484,-1.12351 1.9368,-1.9368 l 13.1608,-23.64233 c 1.3431,-2.41278 0.476,-5.45752 -1.9368,-6.80063 -0.7436,-0.414 -1.5807,-0.63129 -2.4319,-0.63129 l -26.3217,0 c -2.7614,0 -5,2.23859 -5,5 0,0.85117 0.2173,1.68823 0.6313,2.43192 z"
         id="path250"
         style="fill:#ffffff;fill-opacity:1;fill-rule:nonzero;stroke:none" /><g
         transform="matrix(1,0,0,-1,-95.5,475.5)"
         id="g252"><path
           d="m 252.3036,418.5662 13.1608,-23.6423 c 1.3432,-2.4128 4.3879,-3.2799 6.8007,-1.9368 0.8133,0.4527 1.484,1.1235 1.9368,1.9368 l 13.1608,23.6423 c 1.3431,2.4128 0.476,5.4575 -1.9368,6.8007 -0.7436,0.414 -1.5807,0.6312 -2.4319,0.6312 l -26.3217,0 c -2.7614,0 -5,-2.2385 -5,-5 0,-0.8511 0.2173,-1.6882 0.6313,-2.4319 z"
           id="path254"
           style="fill:none;stroke:#000000;stroke-width:1;stroke-linecap:round;stroke-linejoin:round;stroke-miterlimit:10;stroke-opacity:1;stroke-dasharray:none" /></g><path
         d="m 182.375,91.90909 c 4.4417,-4.78745 4.4417,-12.54941 0,-17.33685 -4.4417,-4.78745 -11.643,-4.78745 -16.0847,0 -4.4417,4.78744 -4.4417,12.5494 0,17.33685 4.4417,4.78744 11.643,4.78744 16.0847,0"
         id="path256"
         style="fill:#ffffff;fill-opacity:1;fill-rule:nonzero;stroke:none" /><g
         transform="matrix(1,0,0,-1,-95.5,475.5)"
         id="g258"><path
           d="m 277.875,383.5909 c 4.4417,4.7875 4.4417,12.5494 0,17.3369 -4.4417,4.7874 -11.643,4.7874 -16.0847,0 -4.4417,-4.7875 -4.4417,-12.5494 0,-17.3369 4.4417,-4.7874 11.643,-4.7874 16.0847,0"
           id="path260"
           style="fill:none;stroke:#000000;stroke-width:1;stroke-linecap:round;stroke-linejoin:round;stroke-miterlimit:10;stroke-opacity:1;stroke-dasharray:none" /></g><path
         d="m 162.4706,50.9278 13.1608,23.64233 c 1.3431,2.41278 4.3879,3.27991 6.8007,1.9368 0.8133,-0.45273 1.484,-1.12351 1.9368,-1.9368 L 197.5297,50.9278 c 1.3431,-2.41279 0.476,-5.45752 -1.9368,-6.80063 -0.7437,-0.414 -1.5807,-0.63129 -2.4319,-0.63129 l -26.3217,0 c -2.7614,0 -5,2.23859 -5,5 0,0.85117 0.2172,1.68823 0.6313,2.43192 z"
         id="path262"
         style="fill:#ffffff;fill-opacity:1;fill-rule:nonzero;stroke:none" /><g
         transform="matrix(1,0,0,-1,-95.5,475.5)"
         id="g264"><path
           d="m 257.9706,424.5722 13.1608,-23.6423 c 1.3431,-2.4128 4.3879,-3.2799 6.8007,-1.9368 0.8133,0.4527 1.484,1.1235 1.9368,1.9368 l 13.1608,23.6423 c 1.3431,2.4128 0.476,5.4575 -1.9368,6.8006 -0.7437,0.414 -1.5807,0.6313 -2.4319,0.6313 l -26.3217,0 c -2.7614,0 -5,-2.2386 -5,-5 0,-0.8511 0.2172,-1.6882 0.6313,-2.4319 z"
           id="path266"
           style="fill:none;stroke:#000000;stroke-width:1;stroke-linecap:round;stroke-linejoin:round;stroke-miterlimit:10;stroke-opacity:1;stroke-dasharray:none" /></g><path
         d="m 188.0419,85.90311 c 4.4417,-4.78745 4.4417,-12.54941 0,-17.33686 -4.4416,-4.78744 -11.643,-4.78744 -16.0846,0 -4.4417,4.78745 -4.4417,12.54941 0,17.33686 4.4416,4.78744 11.643,4.78744 16.0846,0"
         id="path268"
         style="fill:#ffffff;fill-opacity:1;fill-rule:nonzero;stroke:none" /><g
         transform="matrix(1,0,0,-1,-95.5,475.5)"
         id="g270"><path
           d="m 283.5419,389.5969 c 4.4417,4.7874 4.4417,12.5494 0,17.3368 -4.4416,4.7875 -11.643,4.7875 -16.0846,0 -4.4417,-4.7874 -4.4417,-12.5494 0,-17.3368 4.4416,-4.7875 11.643,-4.7875 16.0846,0"
           id="path272"
           style="fill:none;stroke:#000000;stroke-width:1;stroke-linecap:round;stroke-linejoin:round;stroke-miterlimit:10;stroke-opacity:1;stroke-dasharray:none" /></g><path
         d="m 168.4706,44.26178 13.1608,23.64233 c 1.3431,2.41278 4.3879,3.27991 6.8007,1.9368 0.8133,-0.45273 1.484,-1.1235 1.9368,-1.9368 l 13.1608,-23.64233 c 1.3431,-2.41278 0.476,-5.45752 -1.9368,-6.80063 -0.7437,-0.414 -1.5807,-0.63129 -2.4319,-0.63129 l -26.3217,0 c -2.7614,0 -5,2.23859 -5,5 0,0.85117 0.2172,1.68824 0.6313,2.43192 z"
         id="path274"
         style="fill:#ffffff;fill-opacity:1;fill-rule:nonzero;stroke:none" /><g
         transform="matrix(1,0,0,-1,-95.5,475.5)"
         id="g276"><path
           d="m 263.9706,431.2382 13.1608,-23.6423 c 1.3431,-2.4128 4.3879,-3.2799 6.8007,-1.9368 0.8133,0.4527 1.484,1.1235 1.9368,1.9368 l 13.1608,23.6423 c 1.3431,2.4128 0.476,5.4575 -1.9368,6.8006 -0.7437,0.4141 -1.5807,0.6313 -2.4319,0.6313 l -26.3217,0 c -2.7614,0 -5,-2.2386 -5,-5 0,-0.8511 0.2172,-1.6882 0.6313,-2.4319 z"
           id="path278"
           style="fill:none;stroke:#000000;stroke-width:1;stroke-linecap:round;stroke-linejoin:round;stroke-miterlimit:10;stroke-opacity:1;stroke-dasharray:none" /></g><path
         d="m 194.0419,79.23709 c 4.4417,-4.78744 4.4417,-12.54941 0,-17.33685 -4.4416,-4.78745 -11.643,-4.78745 -16.0846,0 -4.4417,4.78744 -4.4417,12.54941 0,17.33685 4.4416,4.78745 11.643,4.78745 16.0846,0"
         id="path280"
         style="fill:#ffffff;fill-opacity:1;fill-rule:nonzero;stroke:none" /><g
         transform="matrix(1,0,0,-1,-95.5,475.5)"
         id="g282"><path
           d="m 289.5419,396.2629 c 4.4417,4.7875 4.4417,12.5494 0,17.3369 -4.4416,4.7874 -11.643,4.7874 -16.0846,0 -4.4417,-4.7875 -4.4417,-12.5494 0,-17.3369 4.4416,-4.7874 11.643,-4.7874 16.0846,0"
           id="path284"
           style="fill:none;stroke:#000000;stroke-width:1;stroke-linecap:round;stroke-linejoin:round;stroke-miterlimit:10;stroke-opacity:1;stroke-dasharray:none" /></g><g
         transform="matrix(1,0,0,-1,180,23.99969)"
         id="g286"><text
           transform="translate(-25.36328,4)"
           id="text288"><tspan
             x="0 9.3336 13.3296 20.004 26.6784 33.352798 40.027199 43.360802"
             y="0"
             id="tspan290"
             style="font-size:12px;font-variant:normal;font-weight:normal;writing-mode:lr-tb;fill:#000000;fill-opacity:1;fill-rule:nonzero;stroke:none;font-family:Helvetica;-inkscape-font-specification:Helvetica">Gruppe B</tspan></text>
</g><path
         d="m 20.50001,66.49969 80.33329,0 c 2.7614,0 5,-2.23858 5,-5 l 0,-11 c 0,-2.76141 -2.2386,-5 -5,-5 l -80.33329,0 c -2.76142,0 -5,2.23859 -5,5 0,0 0,0 0,0 l 0,11 c 0,2.76142 2.23858,5 5,5 z"
         id="path292"
         style="fill:#ffffff;fill-opacity:1;fill-rule:nonzero;stroke:none" /><g
         transform="matrix(1,0,0,-1,-95.5,475.5)"
         id="g294"><path
           d="m 116,409.0003 80.3333,0 c 2.7614,0 5,2.2386 5,5 l 0,11 c 0,2.7614 -2.2386,5 -5,5 l -80.3333,0 c -2.7614,0 -5,-2.2386 -5,-5 0,0 0,0 0,0 l 0,-11 c 0,-2.7614 2.2386,-5 5,-5 z"
           id="path296"
           style="fill:none;stroke:#000000;stroke-width:1;stroke-linecap:round;stroke-linejoin:round;stroke-miterlimit:10;stroke-opacity:1;stroke-dasharray:none" /></g><g
         transform="matrix(1,0,0,-1,60.16666,56.49969)"
         id="g298"><text
           transform="translate(-23.68652,4)"
           id="text300"><tspan
             x="0 8.0039997 14.6784 20.6784 27.3528 34.027199 40.701599"
             y="0"
             id="tspan302"
             style="font-size:12px;font-variant:normal;font-weight:normal;writing-mode:lr-tb;fill:#000000;fill-opacity:1;fill-rule:nonzero;stroke:none;font-family:Helvetica;-inkscape-font-specification:Helvetica">Ansehen</tspan></text>
</g><g
         transform="matrix(1,0,0,-1,-95.5,475.5)"
         id="g304"><path
           d="m 201.8333,418.8612 27.6007,-0.3863"
           id="path306"
           style="fill:none;stroke:#000000;stroke-width:1;stroke-linecap:round;stroke-linejoin:round;stroke-miterlimit:10;stroke-opacity:1;stroke-dasharray:none" /></g><path
         d="m 141.9332,57.13712 -8.0412,2.88775 0.084,-5.99942 7.9572,3.11167 z"
         id="path308"
         style="fill:#000000;fill-opacity:1;fill-rule:nonzero;stroke:none" /><g
         transform="matrix(1,0,0,-1,-95.5,475.5)"
         id="g310"><path
           d="m 237.4332,418.3629 -8.0412,-2.8878 0.084,5.9994 7.9572,-3.1116 z"
           id="path312"
           style="fill:none;stroke:#000000;stroke-width:1;stroke-linecap:butt;stroke-linejoin:miter;stroke-miterlimit:10;stroke-opacity:1;stroke-dasharray:none" /></g></g></g></svg>