<?xml version="1.0" encoding="UTF-8" standalone="no"?>
<!-- Created with Inkscape (http://www.inkscape.org/) -->

<svg
   xmlns:svg="http://www.w3.org/2000/svg"
   xmlns="http://www.w3.org/2000/svg"
   version="1.1"
   width="318.75"
   height="77.5"
   id="svg2"
   xml:space="preserve"><defs
     id="defs6" /><g
     transform="matrix(1.25,0,0,-1.25,0,77.5)"
     id="g12"><g
       id="g14" /><g
       id="g16"><path
         d="M 0,0 255,0 255,62 0,62 0,0 z"
         id="path18"
         style="fill:#ffffff;fill-opacity:1;fill-rule:nonzero;stroke:none" /><path
         d="m 7.499939,44.66776 80.333311,0 c 2.76142,0 5,-2.23859 5,-5 l 0,-11 c 0,-2.76142 -2.23858,-5 -5,-5 l -80.333311,0 c -2.761429,0 -5,2.23858 -5,5 0,0 0,0 0,0 l 0,11 c 0,2.76141 2.238571,5 5,5 z"
         id="path20"
         style="fill:#ffffff;fill-opacity:1;fill-rule:nonzero;stroke:none" /><g
         transform="matrix(1,0,0,-1,-206.5,310.5)"
         id="g22"><path
           d="m 213.9999,265.8322 80.3334,0 c 2.7614,0 5,2.2386 5,5 l 0,11 c 0,2.7615 -2.2386,5 -5,5 l -80.3334,0 c -2.7614,0 -5,-2.2385 -5,-5 0,0 0,0 0,0 l 0,-11 c 0,-2.7614 2.2386,-5 5,-5 z"
           id="path24"
           style="fill:none;stroke:#000000;stroke-width:1;stroke-linecap:round;stroke-linejoin:round;stroke-miterlimit:10;stroke-opacity:1;stroke-dasharray:none" /></g><g
         transform="matrix(1,0,0,-1,47.1666,34.66776)"
         id="g26"><text
           transform="translate(-29.02148,4)"
           id="text28"><tspan
             x="0 8.0039997 14.6784 21.3528 25.348801 32.023201 38.697601 41.363998 44.697601 51.372002"
             y="0"
             id="tspan30"
             style="font-size:12px;font-variant:normal;font-weight:normal;writing-mode:lr-tb;fill:#000000;fill-opacity:1;fill-rule:nonzero;stroke:none;font-family:Helvetica;-inkscape-font-specification:Helvetica">Bearbeiten</tspan></text>
</g><g
         transform="matrix(1,0,0,-1,-206.5,310.5)"
         id="g32"><path
           d="m 299.3326,276.3572 27.601,-0.3864"
           id="path34"
           style="fill:none;stroke:#000000;stroke-width:1;stroke-linecap:round;stroke-linejoin:round;stroke-miterlimit:10;stroke-opacity:1;stroke-dasharray:none" /></g><path
         d="m 128.4328,34.6412 -8.0412,2.88773 0.084,-5.99942 7.9572,3.11169 z"
         id="path36"
         style="fill:#000000;fill-opacity:1;fill-rule:nonzero;stroke:none" /><g
         transform="matrix(1,0,0,-1,-206.5,310.5)"
         id="g38"><path
           d="m 334.9328,275.8588 -8.0412,-2.8877 0.084,5.9994 7.9572,-3.1117 z"
           id="path40"
           style="fill:none;stroke:#000000;stroke-width:1;stroke-linecap:butt;stroke-linejoin:miter;stroke-miterlimit:10;stroke-opacity:1;stroke-dasharray:none" /></g><path
         d="m 139.9705,21.26749 13.1608,23.64233 c 1.3431,2.41278 4.3879,3.27991 6.8006,1.9368 0.8133,-0.45273 1.4841,-1.12351 1.9368,-1.9368 l 13.1609,-23.64233 c 1.3431,-2.41278 0.476,-5.45752 -1.9368,-6.80063 -0.7437,-0.414 -1.5807,-0.63129 -2.4319,-0.63129 l -26.3217,0 c -2.7614,0 -5,2.23859 -5,5 0,0.85117 0.2172,1.68823 0.6312,2.43192 l 10e-5,0 z"
         id="path42"
         style="fill:#ffffff;fill-opacity:1;fill-rule:nonzero;stroke:none" /><g
         transform="matrix(1,0,0,-1,-206.5,310.5)"
         id="g44"><path
           d="m 346.4705,289.2325 13.1608,-23.6423 c 1.3431,-2.4128 4.3879,-3.2799 6.8006,-1.9368 0.8133,0.4527 1.4841,1.1235 1.9368,1.9368 l 13.1609,23.6423 c 1.3431,2.4128 0.476,5.4575 -1.9368,6.8006 -0.7437,0.414 -1.5807,0.6313 -2.4319,0.6313 l -26.3217,0 c -2.7614,0 -5,-2.2386 -5,-5 0,-0.8511 0.2172,-1.6882 0.6312,-2.4319 l 1e-4,0 z"
           id="path46"
           style="fill:none;stroke:#000000;stroke-width:1;stroke-linecap:round;stroke-linejoin:round;stroke-miterlimit:10;stroke-opacity:1;stroke-dasharray:none" /></g><path
         d="m 165.5418,56.24278 c 4.4417,-4.78743 4.4417,-12.54939 0,-17.33684 -4.4416,-4.78744 -11.643,-4.78744 -16.0846,0 -4.4418,4.78745 -4.4418,12.54941 0,17.33684 4.4416,4.78746 11.643,4.78746 16.0846,0"
         id="path48"
         style="fill:#ffffff;fill-opacity:1;fill-rule:nonzero;stroke:none" /><g
         transform="matrix(1,0,0,-1,-206.5,310.5)"
         id="g50"><path
           d="m 372.0418,254.2572 c 4.4417,4.7874 4.4417,12.5494 0,17.3369 -4.4416,4.7874 -11.643,4.7874 -16.0846,0 -4.4418,-4.7875 -4.4418,-12.5495 0,-17.3369 4.4416,-4.7874 11.643,-4.7874 16.0846,0"
           id="path52"
           style="fill:none;stroke:#000000;stroke-width:1;stroke-linecap:round;stroke-linejoin:round;stroke-miterlimit:10;stroke-opacity:1;stroke-dasharray:none" /></g><path
         d="m 145.6371,15.26129 13.1608,23.64234 c 1.3432,2.41278 4.3879,3.2799 6.8007,1.93679 0.8133,-0.45272 1.484,-1.1235 1.9368,-1.93679 l 13.1608,-23.64234 c 1.3431,-2.41278 0.476,-5.457518 -1.9368,-6.800627 -0.7437,-0.414002 -1.5807,-0.631287 -2.4319,-0.631287 l -26.3217,0 c -2.7614,0 -5,2.238584 -5,5.000004 0,0.85116 0.2173,1.68823 0.6313,2.43191 z"
         id="path54"
         style="fill:#ffffff;fill-opacity:1;fill-rule:nonzero;stroke:none" /><g
         transform="matrix(1,0,0,-1,-206.5,310.5)"
         id="g56"><path
           d="m 352.1371,295.2387 13.1608,-23.6423 c 1.3432,-2.4128 4.3879,-3.2799 6.8007,-1.9368 0.8133,0.4527 1.484,1.1235 1.9368,1.9368 l 13.1608,23.6423 c 1.3431,2.4128 0.476,5.4575 -1.9368,6.8006 -0.7437,0.414 -1.5807,0.6313 -2.4319,0.6313 l -26.3217,0 c -2.7614,0 -5,-2.2386 -5,-5 0,-0.8511 0.2173,-1.6882 0.6313,-2.4319 z"
           id="path58"
           style="fill:none;stroke:#000000;stroke-width:1;stroke-linecap:round;stroke-linejoin:round;stroke-miterlimit:10;stroke-opacity:1;stroke-dasharray:none" /></g><path
         d="m 171.2084,50.2366 c 4.4417,-4.78744 4.4417,-12.54941 0,-17.33685 -4.4416,-4.78745 -11.643,-4.78745 -16.0846,0 -4.4417,4.78744 -4.4417,12.54941 0,17.33685 4.4416,4.78745 11.643,4.78745 16.0846,0"
         id="path60"
         style="fill:#ffffff;fill-opacity:1;fill-rule:nonzero;stroke:none" /><g
         transform="matrix(1,0,0,-1,-206.5,310.5)"
         id="g62"><path
           d="m 377.7084,260.2634 c 4.4417,4.7874 4.4417,12.5494 0,17.3369 -4.4416,4.7874 -11.643,4.7874 -16.0846,0 -4.4417,-4.7875 -4.4417,-12.5495 0,-17.3369 4.4416,-4.7874 11.643,-4.7874 16.0846,0"
           id="path64"
           style="fill:none;stroke:#000000;stroke-width:1;stroke-linecap:round;stroke-linejoin:round;stroke-miterlimit:10;stroke-opacity:1;stroke-dasharray:none" /></g><path
         d="m 151.6371,8.594727 13.1608,23.642333 c 1.3432,2.41278 4.3879,3.27991 6.8007,1.9368 0.8133,-0.45273 1.484,-1.12351 1.9368,-1.9368 L 186.6962,8.594727 c 1.3431,-2.412781 0.476,-5.45752 -1.9368,-6.800629 -0.7437,-0.414002 -1.5807,-0.631287 -2.4319,-0.631287 l -26.3217,0 c -2.7614,0 -5,2.238587 -5,5 0,0.851166 0.2173,1.688233 0.6313,2.431916 z"
         id="path66"
         style="fill:#ffffff;fill-opacity:1;fill-rule:nonzero;stroke:none" /><g
         transform="matrix(1,0,0,-1,-206.5,310.5)"
         id="g68"><path
           d="m 358.1371,301.9053 13.1608,-23.6424 c 1.3432,-2.4127 4.3879,-3.2799 6.8007,-1.9368 0.8133,0.4528 1.484,1.1235 1.9368,1.9368 l 13.1608,23.6424 c 1.3431,2.4128 0.476,5.4575 -1.9368,6.8006 -0.7437,0.414 -1.5807,0.6313 -2.4319,0.6313 l -26.3217,0 c -2.7614,0 -5,-2.2386 -5,-5 0,-0.8512 0.2173,-1.6882 0.6313,-2.4319 z"
           id="path70"
           style="fill:none;stroke:#000000;stroke-width:1;stroke-linecap:round;stroke-linejoin:round;stroke-miterlimit:10;stroke-opacity:1;stroke-dasharray:none" /></g><path
         d="m 177.2084,43.57004 c 4.4417,-4.78745 4.4417,-12.54941 0,-17.33686 -4.4416,-4.78744 -11.643,-4.78744 -16.0846,0 -4.4417,4.78745 -4.4417,12.54941 0,17.33686 4.4416,4.78744 11.643,4.78744 16.0846,0"
         id="path72"
         style="fill:#ffffff;fill-opacity:1;fill-rule:nonzero;stroke:none" /><g
         transform="matrix(1,0,0,-1,-206.5,310.5)"
         id="g74"><path
           d="m 383.7084,266.93 c 4.4417,4.7874 4.4417,12.5494 0,17.3368 -4.4416,4.7875 -11.643,4.7875 -16.0846,0 -4.4417,-4.7874 -4.4417,-12.5494 0,-17.3368 4.4416,-4.7875 11.643,-4.7875 16.0846,0"
           id="path76"
           style="fill:none;stroke:#000000;stroke-width:1;stroke-linecap:round;stroke-linejoin:round;stroke-miterlimit:10;stroke-opacity:1;stroke-dasharray:none" /></g><g
         transform="matrix(1,0,0,-1,222.8333,31.16776)"
         id="g78"><text
           transform="translate(-25.20703,4)"
           id="text80"><tspan
             x="0 9.3336 13.3296 20.004 26.6784 33.352798 40.027199"
             y="0"
             id="tspan82"
             style="font-size:12px;font-variant:normal;font-weight:normal;writing-mode:lr-tb;fill:#000000;fill-opacity:1;fill-rule:nonzero;stroke:none;font-family:Helvetica;-inkscape-font-specification:Helvetica">Gruppe </tspan></text>
</g><g
         transform="matrix(1,0,0,-1,222.8333,31.16776)"
         id="g84"><text
           transform="translate(17.49609,4)"
           id="text86"><tspan
             x="0"
             y="0"
             id="tspan88"
             style="font-size:12px;font-variant:normal;font-weight:normal;writing-mode:lr-tb;fill:#000000;fill-opacity:1;fill-rule:nonzero;stroke:none;font-family:Helvetica;-inkscape-font-specification:Helvetica">A</tspan></text>
</g></g></g></svg>