<?xml version="1.0" encoding="UTF-8" standalone="no"?>
<svg id="svg2" xmlns:rdf="http://www.w3.org/1999/02/22-rdf-syntax-ns#" xmlns="http://www.w3.org/2000/svg" xml:space="preserve" viewBox="0 0 638.75 111.25" version="1.1" xmlns:cc="http://creativecommons.org/ns#" xmlns:dc="http://purl.org/dc/elements/1.1/"><metadata id="metadata8"><rdf:RDF><cc:Work rdf:about=""><dc:format>image/svg+xml</dc:format><dc:type rdf:resource="http://purl.org/dc/dcmitype/StillImage"/><dc:title/></cc:Work></rdf:RDF></metadata><g id="g12" transform="matrix(1.25,0,0,-1.25,0,111.25)"><g id="g16"><path id="path18" fill-rule="nonzero" fill="#FFF" d="M0,0,511,0,511,89,0,89,0,0z"/><path id="path20" fill-rule="nonzero" fill="#FFF" d="m133.09,45.885c29.875-10.154,29.875-26.616,0-36.77s-78.312-10.154-108.19,0c-29.875,10.154-29.875,26.616,0,36.77s78.312,10.154,108.19,0"/><g id="g22" transform="matrix(1,0,0,-1,-34.5,269.5)"><path id="path24" stroke-linejoin="round" style="stroke-dasharray:none;" d="m167.59,223.62c29.875,10.154,29.875,26.616,0,36.77s-78.312,10.154-108.19,0c-29.875-10.154-29.875-26.616,0-36.77s78.312-10.154,108.19,0" stroke="#000" stroke-linecap="round" stroke-miterlimit="10" stroke-width="2" fill="none"/></g><g id="g26" transform="matrix(1,0,0,-1,78.5,28)"><g id="text28" fill-rule="nonzero" style="" fill="#000" transform="translate(-22.00781,7)"><path id="path2897" d="m3.2607-1.4766,0,5.2207-1.626,0,0-13.588,1.626,0,0,1.4941c0.33984-0.58593,0.76757-1.0195,1.2832-1.3008,0.52148-0.2871,1.1426-0.43065,1.8633-0.43066,1.1953,0.00001,2.165,0.47462,2.9092,1.4238,0.74999,0.94923,1.125,2.1973,1.125,3.7441-0.00001,1.5469-0.37501,2.7949-1.125,3.7441-0.7437,0.94927-1.7135,1.4239-2.9088,1.4239-0.7207,0-1.3418-0.14062-1.8633-0.42187-0.5156-0.28711-0.9433-0.72363-1.2832-1.3096m5.502-3.4365c0-1.1894-0.2461-2.1211-0.7383-2.7949-0.4863-0.6797-1.1572-1.0195-2.0127-1.0195-0.85547,0.0000088-1.5293,0.33985-2.0215,1.0195-0.48633,0.67384-0.7295,1.6055-0.72949,2.7949-0.0000033,1.1895,0.24316,2.124,0.72949,2.8037,0.49218,0.67383,1.166,1.0107,2.0215,1.0107,0.85546,0.0000011,1.5264-0.33691,2.0127-1.0107,0.49218-0.67968,0.73827-1.6143,0.73828-2.8037"/><path id="path2899" d="m17.412-8.332c-0.18165-0.10546-0.38087-0.18163-0.59766-0.22852-0.21094-0.052726-0.44532-0.079093-0.70312-0.079102-0.91407,0.0000086-1.6172,0.29884-2.1094,0.89648-0.48633,0.5918-0.7295,1.4443-0.72949,2.5576v5.1855h-1.626v-9.8438h1.626v1.5293c0.33984-0.59765,0.78222-1.04,1.3271-1.3271,0.54492-0.29296,1.207-0.43944,1.9863-0.43945,0.11132,0.00001,0.23437,0.0088,0.36914,0.02637,0.13476,0.01173,0.28417,0.03224,0.44824,0.061524l0.0088,1.6611"/><path id="path2901" d="m17.702-9.8438,1.6172,0,0,9.8438-1.6172,0,0-9.8438m0-3.832,1.6172,0,0,2.0479-1.6172,0,0-2.0479"/><path id="path2903" d="m20.541-9.8438,1.7139,0,3.0762,8.2617,3.0762-8.2617,1.7139,0l-3.691,9.8438h-2.197l-3.692-9.8438"/><path id="path2905" d="m35.175-4.9482c-1.3066,0.000005-2.2119,0.14942-2.7158,0.44824-0.50391,0.29883-0.75586,0.8086-0.75586,1.5293-0.000003,0.57422,0.1875,1.0313,0.5625,1.3711,0.38086,0.33399,0.89648,0.50098,1.5469,0.50098,0.89648,0.0000011,1.6143-0.3164,2.1533-0.94922,0.54491-0.63867,0.81738-1.4853,0.81738-2.54v-0.36035h-1.6084m3.2256-0.66797,0,5.6162-1.6172,0,0-1.4941c-0.36915,0.59766-0.82911,1.04-1.3799,1.3271-0.55079,0.28125-1.2246,0.42187-2.0215,0.42188-1.0078-2.5E-7-1.8106-0.28125-2.4082-0.84375-0.5918-0.56836-0.8877-1.3271-0.8877-2.2764-0.000001-1.1074,0.36914-1.9424,1.1074-2.5049,0.74414-0.56249,1.8516-0.84374,3.3223-0.84375h2.2676v-0.1582c-0.000008-0.74413-0.2461-1.3184-0.73828-1.7227-0.48633-0.41015-1.1719-0.61523-2.0566-0.61523-0.5625,0.0000087-1.1104,0.067391-1.6436,0.20215-0.53321,0.13477-1.0459,0.33692-1.5381,0.60645v-1.4941c0.5918-0.22851,1.166-0.39843,1.7227-0.50977,0.55664-0.11718,1.0986-0.17577,1.626-0.17578,1.4238,0.00001,2.4873,0.36915,3.1904,1.1074,0.70312,0.73829,1.0547,1.8574,1.0547,3.3574"/><path id="path2907" d="m42.313-12.639,0,2.7949,3.3311,0,0,1.2568-3.3311,0,0,5.3438c-0.000003,0.80274,0.1084,1.3184,0.3252,1.5469,0.22265,0.22852,0.67089,0.34277,1.3447,0.34277h1.6611v1.3535h-1.6611c-1.248,0.0003-2.11-0.23115-2.584-0.69404-0.475-0.46876-0.712-1.3184-0.712-2.5489v-5.3438h-1.1865v-1.2568h1.1865v-2.7949h1.626"/></g></g><path id="path32" fill-rule="nonzero" fill="#FFF" d="m487.09,45.885c29.875-10.154,29.875-26.616,0-36.77s-78.312-10.154-108.19,0c-29.875,10.154-29.875,26.616,0,36.77s78.312,10.154,108.19,0"/><g id="g34" transform="matrix(1,0,0,-1,-34.5,269.5)"><path id="path36" stroke-linejoin="round" style="stroke-dasharray:none;" d="m521.59,223.62c29.875,10.154,29.875,26.616,0,36.77s-78.312,10.154-108.19,0c-29.875-10.154-29.875-26.616,0-36.77s78.312-10.154,108.19,0" stroke="#000" stroke-linecap="round" stroke-miterlimit="10" stroke-width="2" fill="none"/></g><g id="g38" transform="matrix(1,0,0,-1,432.5,28)"><g id="text40" fill-rule="nonzero" style="" fill="#000" transform="translate(-50.8667,7)"><path id="path2910" d="m0.53613-9.8438,1.7139,0,3.0762,8.2617,3.0762-8.2617,1.7139,0l-3.6912,9.8438h-2.1973l-3.6914-9.8438"/><path id="path2912" d="m19.116-5.3262,0,0.79102-7.4355,0c0.07031,1.1133,0.40429,1.9629,1.002,2.5488,0.60351,0.58008,1.4414,0.87012,2.5137,0.87012,0.62109,0.0000011,1.2217-0.076171,1.8018-0.22852,0.58593-0.15234,1.166-0.38086,1.7402-0.68555v1.5293c-0.58009,0.24609-1.1748,0.43359-1.7842,0.5625-0.60938,0.12891-1.2275,0.19336-1.8545,0.19336-1.5703-2.5E-7-2.8154-0.45703-3.7354-1.3711-0.91406-0.91406-1.3711-2.1504-1.3711-3.709-0.000001-1.6113,0.43359-2.8887,1.3008-3.832,0.87304-0.94921,2.0478-1.4238,3.5244-1.4238,1.3242,0.00001,2.3701,0.42774,3.1377,1.2832,0.77343,0.84962,1.1601,2.0068,1.1602,3.4717m-1.6172-0.47461c-0.01173-0.88476-0.26075-1.5908-0.74707-2.1182-0.48048-0.52734-1.1191-0.79101-1.916-0.79102-0.90235,0.0000087-1.626,0.25489-2.1709,0.76465-0.53907,0.50977-0.84961,1.2275-0.93164,2.1533l5.7656-0.00879"/><path id="path2914" d="m26.412-8.332c-0.18165-0.10546-0.38087-0.18163-0.59766-0.22852-0.21094-0.052726-0.44532-0.079093-0.70312-0.079102-0.91407,0.0000086-1.6172,0.29884-2.1094,0.89648-0.48633,0.5918-0.7295,1.4443-0.72949,2.5576v5.1855h-1.626v-9.8438h1.626v1.5293c0.33984-0.59765,0.78222-1.04,1.3271-1.3271,0.54492-0.29296,1.207-0.43944,1.9863-0.43945,0.11132,0.00001,0.23437,0.0088,0.36914,0.02637,0.13476,0.01173,0.28417,0.03224,0.44824,0.061524l0.0088,1.6611"/><path id="path2916" d="m30.516-8.71c-0.86719,0.0000087-1.5527,0.33985-2.0566,1.0195-0.50391,0.67384-0.75586,1.5996-0.75586,2.7773-0.000003,1.1777,0.24902,2.1064,0.74707,2.7861,0.5039,0.67383,1.1924,1.0107,2.0654,1.0107,0.86132,0.0000011,1.5439-0.33984,2.0479-1.0195,0.5039-0.67968,0.75585-1.6055,0.75586-2.7773-0.000008-1.166-0.25196-2.0889-0.75586-2.7686-0.50391-0.68554-1.1865-1.0283-2.0479-1.0283m0-1.3711c1.4062,0.00001,2.5107,0.45704,3.3135,1.3711,0.80272,0.91407,1.2041,2.1797,1.2041,3.7969-0.00001,1.6113-0.40138,2.877-1.2041,3.7969-0.80274,0.91406-1.9072,1.3711-3.3135,1.3711-1.4121-2.5E-7-2.5195-0.45703-3.3223-1.3711-0.79688-0.91992-1.1953-2.1855-1.1953-3.7969-0.000001-1.6172,0.39844-2.8828,1.1953-3.7969,0.80273-0.91405,1.9102-1.3711,3.3223-1.3711m0.82617-3.5596,1.7842,0,0,1.7754-1.7842,0,0-1.7754-3.4365,0,1.7842,0,0,1.7754-1.7842,0,0-1.7754"/><path id="path2918" d="m41.697-13.676,0,1.3447-1.5469,0c-0.58008,0.000013-0.98438,0.1172-1.2129,0.35156-0.22266,0.23439-0.33399,0.65626-0.33398,1.2656v0.87012h2.6631v1.2568h-2.6631v8.5869h-1.626v-8.5869h-1.5469v-1.2568h1.5469v-0.68555c-0.000002-1.0957,0.25488-1.8926,0.76465-2.3906,0.50976-0.50389,1.3184-0.75585,2.4258-0.75586h1.5293"/></g></g><g id="g44" transform="matrix(1,0,0,-1,432.5,28)"><g id="text46" fill-rule="nonzero" style="" fill="#000" transform="translate(-11.1665,7)"><path id="path2921" d="m6.6797-13.676,0,1.3447-1.5469,0c-0.58008,0.000013-0.98438,0.1172-1.2129,0.35156-0.22266,0.23439-0.33399,0.65626-0.33398,1.2656v0.87012h2.6631v1.2568h-2.6631v8.5869h-1.626v-8.5869h-1.5469v-1.2568h1.5469v-0.68555c-0.0000019-1.0957,0.25488-1.8926,0.76465-2.3906,0.50976-0.50389,1.3184-0.75585,2.4258-0.75586h1.5293"/><path id="path2923" d="m15.117-5.3262,0,0.79102-7.4355,0c0.07031,1.1133,0.40429,1.9629,1.002,2.5488,0.60351,0.58008,1.4414,0.87012,2.5137,0.87012,0.62109,0.0000011,1.2217-0.076171,1.8018-0.22852,0.58593-0.15234,1.166-0.38086,1.7402-0.68555v1.5293c-0.58009,0.24609-1.1748,0.43359-1.7842,0.5625-0.60938,0.12891-1.2275,0.19336-1.8545,0.19336-1.5703-2.5E-7-2.8154-0.45703-3.7354-1.3711-0.91406-0.91406-1.3711-2.1504-1.3711-3.709-0.000001-1.6113,0.43359-2.8887,1.3008-3.832,0.87304-0.94921,2.0478-1.4238,3.5244-1.4238,1.3242,0.00001,2.3701,0.42774,3.1377,1.2832,0.77343,0.84962,1.1601,2.0068,1.1602,3.4717m-1.6172-0.47461c-0.01173-0.88476-0.26075-1.5908-0.74707-2.1182-0.48048-0.52734-1.1191-0.79101-1.916-0.79102-0.90235,0.0000087-1.626,0.25489-2.1709,0.76465-0.53907,0.50977-0.84961,1.2275-0.93164,2.1533l5.7656-0.00879"/><path id="path2925" d="m24.891-5.9414,0,5.9414-1.6172,0,0-5.8887c-0.000008-0.93163-0.18165-1.6289-0.54492-2.0918-0.36329-0.46288-0.90821-0.69433-1.6348-0.69434-0.87305,0.0000087-1.5615,0.27833-2.0654,0.83496-0.50391,0.55665-0.75586,1.3154-0.75586,2.2764v5.5635h-1.626v-9.8438h1.626v1.5293c0.38672-0.59179,0.84082-1.0342,1.3623-1.3271,0.52734-0.29296,1.1338-0.43944,1.8193-0.43945,1.1309,0.00001,1.9863,0.35157,2.5664,1.0547,0.58007,0.69727,0.87011,1.7256,0.87012,3.085"/><path id="path2927" d="m28.319-12.639,0,2.7949,3.3311,0,0,1.2568-3.3311,0,0,5.3438c-0.000003,0.80274,0.1084,1.3184,0.3252,1.5469,0.22265,0.22852,0.6709,0.34277,1.3447,0.34277h1.6611v1.3535h-1.6611c-1.248,0.0003-2.109-0.23115-2.584-0.69404-0.474-0.46876-0.711-1.3184-0.711-2.5489v-5.3438h-1.1865v-1.2568h1.1865v-2.7949h1.626"/><path id="path2929" d="m31.72-13.676,1.6172,0,0,13.676-1.6172,0,0-13.676"/><path id="path2931" d="m35.72-9.8438,1.6172,0,0,9.8438-1.6172,0,0-9.8438m0-3.832,1.6172,0,0,2.0479-1.6172,0,0-2.0479"/><path id="path2933" d="m46.803-9.4658,0,1.5117c-0.45704-0.25194-0.917-0.43944-1.3799-0.5625-0.45704-0.1289-0.91993-0.19335-1.3887-0.19336-1.0488,0.0000087-1.8633,0.33399-2.4434,1.002-0.58008,0.66212-0.87012,1.5938-0.87012,2.7949-0.000003,1.2012,0.29004,2.1357,0.87012,2.8037,0.58007,0.66211,1.3945,0.99317,2.4434,0.99316,0.46874,0.0000011,0.93163-0.061522,1.3887-0.18457,0.46288-0.1289,0.92284-0.31933,1.3799-0.57129v1.4941c-0.45118,0.21094-0.91993,0.36914-1.4062,0.47461-0.48048,0.10547-0.99317,0.1582-1.5381,0.1582-1.4824-2.5E-7-2.6602-0.46582-3.5332-1.3975-0.87305-0.93164-1.3096-2.1885-1.3096-3.7705-0.000001-1.6055,0.43945-2.8682,1.3184-3.7881,0.88476-0.91991,2.0947-1.3799,3.6299-1.3799,0.49804,0.00001,0.98437,0.05274,1.459,0.1582,0.4746,0.099619,0.93456,0.25196,1.3799,0.45703"/><path id="path2935" d="m56.902-5.9414,0,5.9414-1.6172,0,0-5.8887c-0.000009-0.93163-0.18165-1.6289-0.54492-2.0918-0.36329-0.46288-0.90821-0.69433-1.6348-0.69434-0.87305,0.0000087-1.5615,0.27833-2.0654,0.83496-0.50391,0.55665-0.75586,1.3154-0.75586,2.2764v5.5635h-1.626v-13.676h1.626v5.3613c0.38672-0.59179,0.84082-1.0342,1.3623-1.3271,0.52734-0.29296,1.1338-0.43944,1.8193-0.43945,1.1309,0.00001,1.9863,0.35157,2.5664,1.0547,0.58007,0.69727,0.87011,1.7256,0.87012,3.085"/><path id="path2937" d="m60.331-12.639,0,2.7949,3.3311,0,0,1.2568-3.3311,0,0,5.3438c-0.000003,0.80274,0.1084,1.3184,0.3252,1.5469,0.22265,0.22852,0.67089,0.34277,1.3447,0.34277h1.6611v1.3535h-1.6611c-1.248,0.0003-2.11-0.23115-2.584-0.69404-0.475-0.46876-0.712-1.3184-0.712-2.5489v-5.3438h-1.1865v-1.2568h1.1865v-2.7949h1.626"/></g></g><g id="g50" transform="matrix(1,0,0,-1,-34.5,269.5)"><path id="path52" stroke-linejoin="round" style="stroke-dasharray:none;" d="m191,242,15.9,0,167.2,0,3,0" stroke="#000" stroke-linecap="round" stroke-miterlimit="10" stroke-width="2" fill="none"/></g><path id="path54" fill-rule="nonzero" fill="#000" d="m352.2,27.5-9.6,3.6,0-7.2,9.6,3.6z"/><g id="g56" transform="matrix(1,0,0,-1,-34.5,269.5)"><path id="path58" stroke-linejoin="miter" style="stroke-dasharray:none;" d="m386.7,242-9.6-3.6,0,7.2,9.6-3.6z" stroke="#000" stroke-linecap="butt" stroke-miterlimit="10" stroke-width="2" fill="none"/></g><path id="path60" fill-rule="nonzero" fill="#FFF" d="m182.79,16.5,127,0,0,22-127,0,0-22z"/><g id="g62" transform="matrix(1,0,0,-1,245.7927,28)"><g id="text64" fill-rule="nonzero" style="" fill="#000" transform="translate(-58.37695,7)"><path id="path2940" d="m0.53613-9.8438,1.7139,0,3.0762,8.2617,3.0762-8.2617,1.7139,0l-3.6912,9.8438h-2.1973l-3.6914-9.8438"/><path id="path2942" d="m19.116-5.3262,0,0.79102-7.4355,0c0.07031,1.1133,0.40429,1.9629,1.002,2.5488,0.60351,0.58008,1.4414,0.87012,2.5137,0.87012,0.62109,0.0000011,1.2217-0.076171,1.8018-0.22852,0.58593-0.15234,1.166-0.38086,1.7402-0.68555v1.5293c-0.58009,0.24609-1.1748,0.43359-1.7842,0.5625-0.60938,0.12891-1.2275,0.19336-1.8545,0.19336-1.5703-2.5E-7-2.8154-0.45703-3.7354-1.3711-0.91406-0.91406-1.3711-2.1504-1.3711-3.709-0.000001-1.6113,0.43359-2.8887,1.3008-3.832,0.87304-0.94921,2.0478-1.4238,3.5244-1.4238,1.3242,0.00001,2.3701,0.42774,3.1377,1.2832,0.77343,0.84962,1.1601,2.0068,1.1602,3.4717m-1.6172-0.47461c-0.01173-0.88476-0.26075-1.5908-0.74707-2.1182-0.48048-0.52734-1.1191-0.79101-1.916-0.79102-0.90235,0.0000087-1.626,0.25489-2.1709,0.76465-0.53907,0.50977-0.84961,1.2275-0.93164,2.1533l5.7656-0.00879"/><path id="path2944" d="m26.412-8.332c-0.18165-0.10546-0.38087-0.18163-0.59766-0.22852-0.21094-0.052726-0.44532-0.079093-0.70312-0.079102-0.91407,0.0000086-1.6172,0.29884-2.1094,0.89648-0.48633,0.5918-0.7295,1.4443-0.72949,2.5576v5.1855h-1.626v-9.8438h1.626v1.5293c0.33984-0.59765,0.78222-1.04,1.3271-1.3271,0.54492-0.29296,1.207-0.43944,1.9863-0.43945,0.11132,0.00001,0.23437,0.0088,0.36914,0.02637,0.13476,0.01173,0.28417,0.03224,0.44824,0.061524l0.0088,1.6611"/><path id="path2946" d="m30.516-8.71c-0.86719,0.0000087-1.5527,0.33985-2.0566,1.0195-0.50391,0.67384-0.75586,1.5996-0.75586,2.7773-0.000003,1.1777,0.24902,2.1064,0.74707,2.7861,0.5039,0.67383,1.1924,1.0107,2.0654,1.0107,0.86132,0.0000011,1.5439-0.33984,2.0479-1.0195,0.5039-0.67968,0.75585-1.6055,0.75586-2.7773-0.000008-1.166-0.25196-2.0889-0.75586-2.7686-0.50391-0.68554-1.1865-1.0283-2.0479-1.0283m0-1.3711c1.4062,0.00001,2.5107,0.45704,3.3135,1.3711,0.80272,0.91407,1.2041,2.1797,1.2041,3.7969-0.00001,1.6113-0.40138,2.877-1.2041,3.7969-0.80274,0.91406-1.9072,1.3711-3.3135,1.3711-1.4121-2.5E-7-2.5195-0.45703-3.3223-1.3711-0.79688-0.91992-1.1953-2.1855-1.1953-3.7969-0.000001-1.6172,0.39844-2.8828,1.1953-3.7969,0.80273-0.91405,1.9102-1.3711,3.3223-1.3711m0.82617-3.5596,1.7842,0,0,1.7754-1.7842,0,0-1.7754-3.4365,0,1.7842,0,0,1.7754-1.7842,0,0-1.7754"/><path id="path2948" d="m41.697-13.676,0,1.3447-1.5469,0c-0.58008,0.000013-0.98438,0.1172-1.2129,0.35156-0.22266,0.23439-0.33399,0.65626-0.33398,1.2656v0.87012h2.6631v1.2568h-2.6631v8.5869h-1.626v-8.5869h-1.5469v-1.2568h1.5469v-0.68555c-0.000002-1.0957,0.25488-1.8926,0.76465-2.3906,0.50976-0.50389,1.3184-0.75585,2.4258-0.75586h1.5293"/></g></g><g id="g68" transform="matrix(1,0,0,-1,245.7927,28)"><g id="text70" fill-rule="nonzero" style="" fill="#000" transform="translate(-18.67676,7)"><path id="path2951" d="m6.6797-13.676,0,1.3447-1.5469,0c-0.58008,0.000013-0.98438,0.1172-1.2129,0.35156-0.22266,0.23439-0.33399,0.65626-0.33398,1.2656v0.87012h2.6631v1.2568h-2.6631v8.5869h-1.626v-8.5869h-1.5469v-1.2568h1.5469v-0.68555c-0.0000019-1.0957,0.25488-1.8926,0.76465-2.3906,0.50976-0.50389,1.3184-0.75585,2.4258-0.75586h1.5293"/><path id="path2953" d="m15.117-5.3262,0,0.79102-7.4355,0c0.07031,1.1133,0.40429,1.9629,1.002,2.5488,0.60351,0.58008,1.4414,0.87012,2.5137,0.87012,0.62109,0.0000011,1.2217-0.076171,1.8018-0.22852,0.58593-0.15234,1.166-0.38086,1.7402-0.68555v1.5293c-0.58009,0.24609-1.1748,0.43359-1.7842,0.5625-0.60938,0.12891-1.2275,0.19336-1.8545,0.19336-1.5703-2.5E-7-2.8154-0.45703-3.7354-1.3711-0.91406-0.91406-1.3711-2.1504-1.3711-3.709-0.000001-1.6113,0.43359-2.8887,1.3008-3.832,0.87304-0.94921,2.0478-1.4238,3.5244-1.4238,1.3242,0.00001,2.3701,0.42774,3.1377,1.2832,0.77343,0.84962,1.1601,2.0068,1.1602,3.4717m-1.6172-0.47461c-0.01173-0.88476-0.26075-1.5908-0.74707-2.1182-0.48048-0.52734-1.1191-0.79101-1.916-0.79102-0.90235,0.0000087-1.626,0.25489-2.1709,0.76465-0.53907,0.50977-0.84961,1.2275-0.93164,2.1533l5.7656-0.00879"/><path id="path2955" d="m24.891-5.9414,0,5.9414-1.6172,0,0-5.8887c-0.000008-0.93163-0.18165-1.6289-0.54492-2.0918-0.36329-0.46288-0.90821-0.69433-1.6348-0.69434-0.87305,0.0000087-1.5615,0.27833-2.0654,0.83496-0.50391,0.55665-0.75586,1.3154-0.75586,2.2764v5.5635h-1.626v-9.8438h1.626v1.5293c0.38672-0.59179,0.84082-1.0342,1.3623-1.3271,0.52734-0.29296,1.1338-0.43944,1.8193-0.43945,1.1309,0.00001,1.9863,0.35157,2.5664,1.0547,0.58007,0.69727,0.87011,1.7256,0.87012,3.085"/><path id="path2957" d="m28.319-12.639,0,2.7949,3.3311,0,0,1.2568-3.3311,0,0,5.3438c-0.000003,0.80274,0.1084,1.3184,0.3252,1.5469,0.22265,0.22852,0.6709,0.34277,1.3447,0.34277h1.6611v1.3535h-1.6611c-1.248,0.0003-2.109-0.23115-2.584-0.69404-0.474-0.46876-0.711-1.3184-0.711-2.5489v-5.3438h-1.1865v-1.2568h1.1865v-2.7949h1.626"/><path id="path2959" d="m31.72-13.676,1.6172,0,0,13.676-1.6172,0,0-13.676"/><path id="path2961" d="m35.72-9.8438,1.6172,0,0,9.8438-1.6172,0,0-9.8438m0-3.832,1.6172,0,0,2.0479-1.6172,0,0-2.0479"/><path id="path2963" d="m46.803-9.4658,0,1.5117c-0.45704-0.25194-0.917-0.43944-1.3799-0.5625-0.45704-0.1289-0.91993-0.19335-1.3887-0.19336-1.0488,0.0000087-1.8633,0.33399-2.4434,1.002-0.58008,0.66212-0.87012,1.5938-0.87012,2.7949-0.000003,1.2012,0.29004,2.1357,0.87012,2.8037,0.58007,0.66211,1.3945,0.99317,2.4434,0.99316,0.46874,0.0000011,0.93163-0.061522,1.3887-0.18457,0.46288-0.1289,0.92284-0.31933,1.3799-0.57129v1.4941c-0.45118,0.21094-0.91993,0.36914-1.4062,0.47461-0.48048,0.10547-0.99317,0.1582-1.5381,0.1582-1.4824-2.5E-7-2.6602-0.46582-3.5332-1.3975-0.87305-0.93164-1.3096-2.1885-1.3096-3.7705-0.000001-1.6055,0.43945-2.8682,1.3184-3.7881,0.88476-0.91991,2.0947-1.3799,3.6299-1.3799,0.49804,0.00001,0.98437,0.05274,1.459,0.1582,0.4746,0.099619,0.93456,0.25196,1.3799,0.45703"/><path id="path2965" d="m56.902-5.9414,0,5.9414-1.6172,0,0-5.8887c-0.000009-0.93163-0.18165-1.6289-0.54492-2.0918-0.36329-0.46288-0.90821-0.69433-1.6348-0.69434-0.87305,0.0000087-1.5615,0.27833-2.0654,0.83496-0.50391,0.55665-0.75586,1.3154-0.75586,2.2764v5.5635h-1.626v-13.676h1.626v5.3613c0.38672-0.59179,0.84082-1.0342,1.3623-1.3271,0.52734-0.29296,1.1338-0.43944,1.8193-0.43945,1.1309,0.00001,1.9863,0.35157,2.5664,1.0547,0.58007,0.69727,0.87011,1.7256,0.87012,3.085"/><path id="path2967" d="m67.151-5.3262,0,0.79102-7.4355,0c0.07031,1.1133,0.40429,1.9629,1.002,2.5488,0.60351,0.58008,1.4414,0.87012,2.5137,0.87012,0.62109,0.0000011,1.2217-0.076171,1.8018-0.22852,0.58593-0.15234,1.166-0.38086,1.7402-0.68555v1.5293c-0.58009,0.24609-1.1748,0.43359-1.7842,0.5625-0.60938,0.12891-1.2275,0.19336-1.8545,0.19336-1.5703-2.5E-7-2.8154-0.45703-3.7354-1.3711-0.91406-0.91406-1.3711-2.1504-1.3711-3.709-0.000001-1.6113,0.43359-2.8887,1.3008-3.832,0.87304-0.94921,2.0478-1.4238,3.5244-1.4238,1.3242,0.00001,2.3701,0.42774,3.1377,1.2832,0.77343,0.84962,1.1601,2.0068,1.1602,3.4717m-1.6172-0.47461c-0.01173-0.88476-0.26075-1.5908-0.74707-2.1182-0.48048-0.52734-1.1191-0.79101-1.916-0.79102-0.90235,0.0000087-1.626,0.25489-2.1709,0.76465-0.53907,0.50977-0.84961,1.2275-0.93164,2.1533l5.7656-0.00879"/><path id="path2969" d="m76.925-5.9414,0,5.9414-1.6172,0,0-5.8887c-0.000009-0.93163-0.18165-1.6289-0.54492-2.0918-0.36329-0.46288-0.90821-0.69433-1.6348-0.69434-0.87305,0.0000087-1.5615,0.27833-2.0654,0.83496-0.50391,0.55665-0.75586,1.3154-0.75586,2.2764v5.5635h-1.626v-9.8438h1.626v1.5293c0.38672-0.59179,0.84082-1.0342,1.3623-1.3271,0.52734-0.29296,1.1338-0.43944,1.8193-0.43945,1.1309,0.00001,1.9863,0.35157,2.5664,1.0547,0.58007,0.69727,0.87011,1.7256,0.87012,3.085"/></g></g><g id="g74" transform="matrix(1,0,0,-1,78.5,77)"><g id="text76" fill-rule="nonzero" style="" fill="#000" transform="translate(-25.0293,7)"><path id="path2972" d="m9.6328-12.691,0,1.7314c-0.67384-0.32225-1.3096-0.56249-1.9072-0.7207-0.59766-0.15819-1.1748-0.23729-1.7314-0.2373-0.9668,0.000012-1.7139,0.18751-2.2412,0.5625-0.52149,0.37501-0.78223,0.90821-0.78223,1.5996-0.0000029,0.58009,0.17285,1.0195,0.51855,1.3184,0.35156,0.29298,1.0137,0.53028,1.9863,0.71191l1.0723,0.21973c1.3242,0.25196,2.2998,0.69727,2.9268,1.3359,0.6328,0.63282,0.94921,1.4824,0.94922,2.5488-0.00001,1.2715-0.42774,2.2354-1.2832,2.8916-0.8498,0.65686-2.0978,0.98498-3.7443,0.98498-0.6211,0-1.2832-0.07031-1.9863-0.21094-0.6973-0.14062-1.4209-0.34864-2.1709-0.62402v-1.8281c0.7207,0.4043,1.4268,0.70899,2.1182,0.91406,0.6914,0.20508,1.3711,0.30762,2.0391,0.30762,1.0137,0.0000011,1.7959-0.19922,2.3467-0.59766,0.5506-0.3984,0.826-0.9668,0.826-1.7051,0-0.6445-0.1992-1.1484-0.5976-1.5117-0.3926-0.3633-1.0401-0.6357-1.9424-0.8174l-1.0811-0.2109c-1.3242-0.2637-2.2822-0.6767-2.874-1.2393-0.5918-0.5624-0.8877-1.3447-0.8877-2.3466-0.0000011-1.1601,0.40722-2.0742,1.2217-2.7422,0.82031-0.66796,1.9482-1.0019,3.3838-1.002,0.61523,0.000013,1.2422,0.05568,1.8809,0.16699,0.63866,0.11134,1.292,0.27833,1.96,0.50098"/><path id="path2974" d="m15.302-12.639,0,2.7949,3.3311,0,0,1.2568-3.3311,0,0,5.3438c-0.000003,0.80274,0.1084,1.3184,0.3252,1.5469,0.22265,0.22852,0.67089,0.34277,1.3447,0.34277h1.6611v1.3535h-1.6611c-1.248,0.0003-2.11-0.23115-2.584-0.69404-0.475-0.46876-0.712-1.3184-0.712-2.5489v-5.3438h-1.1865v-1.2568h1.1865v-2.7949h1.626"/><path id="path2976" d="m23.176-4.9482c-1.3066,0.000005-2.2119,0.14942-2.7158,0.44824-0.50391,0.29883-0.75586,0.8086-0.75586,1.5293-0.000002,0.57422,0.1875,1.0313,0.5625,1.3711,0.38086,0.33399,0.89648,0.50098,1.5469,0.50098,0.89648,0.0000011,1.6143-0.3164,2.1533-0.94922,0.54491-0.63867,0.81738-1.4853,0.81738-2.54v-0.36035h-1.6084m3.2256-0.66797,0,5.6162-1.6172,0,0-1.4941c-0.36915,0.59766-0.82911,1.04-1.3799,1.3271-0.55079,0.28125-1.2246,0.42187-2.0215,0.42188-1.0078-2.5E-7-1.8105-0.28125-2.4082-0.84375-0.5918-0.56836-0.8877-1.3271-0.8877-2.2764-0.000001-1.1074,0.36914-1.9424,1.1074-2.5049,0.74414-0.56249,1.8516-0.84374,3.3223-0.84375h2.2676v-0.1582c-0.000007-0.74413-0.2461-1.3184-0.73828-1.7227-0.48633-0.41015-1.1719-0.61523-2.0566-0.61523-0.5625,0.0000087-1.1104,0.067391-1.6436,0.20215-0.53321,0.13477-1.0459,0.33692-1.5381,0.60645v-1.4941c0.59179-0.22851,1.166-0.39843,1.7227-0.50977,0.55664-0.11718,1.0986-0.17577,1.626-0.17578,1.4238,0.00001,2.4873,0.36915,3.1904,1.1074,0.70312,0.73829,1.0547,1.8574,1.0547,3.3574"/><path id="path2978" d="m30.314-12.639,0,2.7949,3.3311,0,0,1.2568-3.3311,0,0,5.3438c-0.000003,0.80274,0.1084,1.3184,0.3252,1.5469,0.22265,0.22852,0.6709,0.34277,1.3447,0.34277h1.6611v1.3535h-1.6611c-1.248,0.0003-2.11-0.23115-2.584-0.69404-0.475-0.46876-0.712-1.3184-0.712-2.5489v-5.3438h-1.1865v-1.2568h1.1865v-2.7949h1.626"/><path id="path2980" d="m33.548-3.8848,0-5.959,1.6172,0,0,5.8975c-0.000003,0.93164,0.18164,1.6318,0.54492,2.1006,0.36328,0.46289,0.9082,0.69434,1.6348,0.69434,0.87304,0.0000012,1.5615-0.27832,2.0654-0.83496,0.50976-0.55664,0.76464-1.3154,0.76465-2.2764v-5.5811h1.6172v9.8438h-1.6172v-1.5117c-0.39259,0.59766-0.84962,1.043-1.3711,1.3359-0.51563,0.28711-1.1162,0.43066-1.8018,0.43066-1.1309-2.5E-7-1.9893-0.35156-2.5752-1.0547-0.586-0.70296-0.879-1.7313-0.879-3.0849"/><path id="path2982" d="m50.002-9.5537,0,1.5293c-0.45704-0.23437-0.93165-0.41015-1.4238-0.52734-0.49219-0.11718-1.002-0.17577-1.5293-0.17578-0.80274,0.0000088-1.4063,0.12306-1.8105,0.36914-0.39844,0.2461-0.59766,0.61524-0.59766,1.1074-0.000002,0.37501,0.14355,0.67091,0.43066,0.8877,0.28711,0.21094,0.86425,0.41309,1.7314,0.60645l0.55371,0.12305c1.1484,0.2461,1.9629,0.59473,2.4434,1.0459,0.48632,0.44532,0.72948,1.0693,0.72949,1.8721-0.000008,0.91406-0.36329,1.6377-1.0898,2.1709-0.72071,0.5332-1.7139,0.7998-2.9795,0.7998-0.52735-2.5E-7-1.0781-0.052735-1.6523-0.1582-0.56836-0.099609-1.1689-0.25195-1.8018-0.45703v-1.6699c0.59765,0.31055,1.1865,0.54492,1.7666,0.70312,0.58008,0.15234,1.1543,0.22852,1.7227,0.22852,0.76171,0.0000011,1.3476-0.1289,1.7578-0.38672,0.41015-0.26367,0.61523-0.63281,0.61523-1.1074-0.000006-0.43945-0.14942-0.77636-0.44824-1.0107-0.29298-0.23437-0.94044-0.45996-1.9424-0.67676l-0.5625-0.13184c-1.002-0.21093-1.7256-0.5332-2.1709-0.9668-0.44531-0.43945-0.66797-1.04-0.66797-1.8018-0.000001-0.92577,0.32812-1.6406,0.98438-2.1445,0.65625-0.5039,1.5879-0.75585,2.7949-0.75586,0.59765,0.00001,1.1602,0.04396,1.6875,0.13184,0.52734,0.0879,1.0137,0.21974,1.459,0.39551"/></g></g><g id="g80" transform="matrix(1,0,0,-1,432.5,77)"><g id="text82" fill-rule="nonzero" style="" fill="#000" transform="translate(-25.0293,7)"><path id="path2985" d="m9.6328-12.691,0,1.7314c-0.67384-0.32225-1.3096-0.56249-1.9072-0.7207-0.59766-0.15819-1.1748-0.23729-1.7314-0.2373-0.9668,0.000012-1.7139,0.18751-2.2412,0.5625-0.52149,0.37501-0.78223,0.90821-0.78223,1.5996-0.0000029,0.58009,0.17285,1.0195,0.51855,1.3184,0.35156,0.29298,1.0137,0.53028,1.9863,0.71191l1.0723,0.21973c1.3242,0.25196,2.2998,0.69727,2.9268,1.3359,0.6328,0.63282,0.94921,1.4824,0.94922,2.5488-0.00001,1.2715-0.42774,2.2354-1.2832,2.8916-0.8498,0.65686-2.0978,0.98498-3.7443,0.98498-0.6211,0-1.2832-0.07031-1.9863-0.21094-0.6973-0.14062-1.4209-0.34864-2.1709-0.62402v-1.8281c0.7207,0.4043,1.4268,0.70899,2.1182,0.91406,0.6914,0.20508,1.3711,0.30762,2.0391,0.30762,1.0137,0.0000011,1.7959-0.19922,2.3467-0.59766,0.5506-0.3984,0.826-0.9668,0.826-1.7051,0-0.6445-0.1992-1.1484-0.5976-1.5117-0.3926-0.3633-1.0401-0.6357-1.9424-0.8174l-1.0811-0.2109c-1.3242-0.2637-2.2822-0.6767-2.874-1.2393-0.5918-0.5624-0.8877-1.3447-0.8877-2.3466-0.0000011-1.1601,0.40722-2.0742,1.2217-2.7422,0.82031-0.66796,1.9482-1.0019,3.3838-1.002,0.61523,0.000013,1.2422,0.05568,1.8809,0.16699,0.63866,0.11134,1.292,0.27833,1.96,0.50098"/><path id="path2987" d="m15.302-12.639,0,2.7949,3.3311,0,0,1.2568-3.3311,0,0,5.3438c-0.000003,0.80274,0.1084,1.3184,0.3252,1.5469,0.22265,0.22852,0.67089,0.34277,1.3447,0.34277h1.6611v1.3535h-1.6611c-1.248,0.0003-2.11-0.23115-2.584-0.69404-0.475-0.46876-0.712-1.3184-0.712-2.5489v-5.3438h-1.1865v-1.2568h1.1865v-2.7949h1.626"/><path id="path2989" d="m23.176-4.9482c-1.3066,0.000005-2.2119,0.14942-2.7158,0.44824-0.50391,0.29883-0.75586,0.8086-0.75586,1.5293-0.000002,0.57422,0.1875,1.0313,0.5625,1.3711,0.38086,0.33399,0.89648,0.50098,1.5469,0.50098,0.89648,0.0000011,1.6143-0.3164,2.1533-0.94922,0.54491-0.63867,0.81738-1.4853,0.81738-2.54v-0.36035h-1.6084m3.2256-0.66797,0,5.6162-1.6172,0,0-1.4941c-0.36915,0.59766-0.82911,1.04-1.3799,1.3271-0.55079,0.28125-1.2246,0.42187-2.0215,0.42188-1.0078-2.5E-7-1.8105-0.28125-2.4082-0.84375-0.5918-0.56836-0.8877-1.3271-0.8877-2.2764-0.000001-1.1074,0.36914-1.9424,1.1074-2.5049,0.74414-0.56249,1.8516-0.84374,3.3223-0.84375h2.2676v-0.1582c-0.000007-0.74413-0.2461-1.3184-0.73828-1.7227-0.48633-0.41015-1.1719-0.61523-2.0566-0.61523-0.5625,0.0000087-1.1104,0.067391-1.6436,0.20215-0.53321,0.13477-1.0459,0.33692-1.5381,0.60645v-1.4941c0.59179-0.22851,1.166-0.39843,1.7227-0.50977,0.55664-0.11718,1.0986-0.17577,1.626-0.17578,1.4238,0.00001,2.4873,0.36915,3.1904,1.1074,0.70312,0.73829,1.0547,1.8574,1.0547,3.3574"/><path id="path2991" d="m30.314-12.639,0,2.7949,3.3311,0,0,1.2568-3.3311,0,0,5.3438c-0.000003,0.80274,0.1084,1.3184,0.3252,1.5469,0.22265,0.22852,0.6709,0.34277,1.3447,0.34277h1.6611v1.3535h-1.6611c-1.248,0.0003-2.11-0.23115-2.584-0.69404-0.475-0.46876-0.712-1.3184-0.712-2.5489v-5.3438h-1.1865v-1.2568h1.1865v-2.7949h1.626"/><path id="path2993" d="m33.548-3.8848,0-5.959,1.6172,0,0,5.8975c-0.000003,0.93164,0.18164,1.6318,0.54492,2.1006,0.36328,0.46289,0.9082,0.69434,1.6348,0.69434,0.87304,0.0000012,1.5615-0.27832,2.0654-0.83496,0.50976-0.55664,0.76464-1.3154,0.76465-2.2764v-5.5811h1.6172v9.8438h-1.6172v-1.5117c-0.39259,0.59766-0.84962,1.043-1.3711,1.3359-0.51563,0.28711-1.1162,0.43066-1.8018,0.43066-1.1309-2.5E-7-1.9893-0.35156-2.5752-1.0547-0.586-0.70296-0.879-1.7313-0.879-3.0849"/><path id="path2995" d="m50.002-9.5537,0,1.5293c-0.45704-0.23437-0.93165-0.41015-1.4238-0.52734-0.49219-0.11718-1.002-0.17577-1.5293-0.17578-0.80274,0.0000088-1.4063,0.12306-1.8105,0.36914-0.39844,0.2461-0.59766,0.61524-0.59766,1.1074-0.000002,0.37501,0.14355,0.67091,0.43066,0.8877,0.28711,0.21094,0.86425,0.41309,1.7314,0.60645l0.55371,0.12305c1.1484,0.2461,1.9629,0.59473,2.4434,1.0459,0.48632,0.44532,0.72948,1.0693,0.72949,1.8721-0.000008,0.91406-0.36329,1.6377-1.0898,2.1709-0.72071,0.5332-1.7139,0.7998-2.9795,0.7998-0.52735-2.5E-7-1.0781-0.052735-1.6523-0.1582-0.56836-0.099609-1.1689-0.25195-1.8018-0.45703v-1.6699c0.59765,0.31055,1.1865,0.54492,1.7666,0.70312,0.58008,0.15234,1.1543,0.22852,1.7227,0.22852,0.76171,0.0000011,1.3476-0.1289,1.7578-0.38672,0.41015-0.26367,0.61523-0.63281,0.61523-1.1074-0.000006-0.43945-0.14942-0.77636-0.44824-1.0107-0.29298-0.23437-0.94044-0.45996-1.9424-0.67676l-0.5625-0.13184c-1.002-0.21093-1.7256-0.5332-2.1709-0.9668-0.44531-0.43945-0.66797-1.04-0.66797-1.8018-0.000001-0.92577,0.32812-1.6406,0.98438-2.1445,0.65625-0.5039,1.5879-0.75585,2.7949-0.75586,0.59765,0.00001,1.1602,0.04396,1.6875,0.13184,0.52734,0.0879,1.0137,0.21974,1.459,0.39551"/></g></g><g id="g86" transform="matrix(1,0,0,-1,245.7927,77)"><g id="text88" fill-rule="nonzero" style="" fill="#000" transform="translate(-63.09863,7)"><path id="path2998" d="m9.6328-12.691,0,1.7314c-0.67384-0.32225-1.3096-0.56249-1.9072-0.7207-0.59766-0.15819-1.1748-0.23729-1.7314-0.2373-0.9668,0.000012-1.7139,0.18751-2.2412,0.5625-0.52149,0.37501-0.78223,0.90821-0.78223,1.5996-0.0000029,0.58009,0.17285,1.0195,0.51855,1.3184,0.35156,0.29298,1.0137,0.53028,1.9863,0.71191l1.0723,0.21973c1.3242,0.25196,2.2998,0.69727,2.9268,1.3359,0.6328,0.63282,0.94921,1.4824,0.94922,2.5488-0.00001,1.2715-0.42774,2.2354-1.2832,2.8916-0.8498,0.65686-2.0978,0.98498-3.7443,0.98498-0.6211,0-1.2832-0.07031-1.9863-0.21094-0.6973-0.14062-1.4209-0.34864-2.1709-0.62402v-1.8281c0.7207,0.4043,1.4268,0.70899,2.1182,0.91406,0.6914,0.20508,1.3711,0.30762,2.0391,0.30762,1.0137,0.0000011,1.7959-0.19922,2.3467-0.59766,0.5506-0.3984,0.826-0.9668,0.826-1.7051,0-0.6445-0.1992-1.1484-0.5976-1.5117-0.3926-0.3633-1.0401-0.6357-1.9424-0.8174l-1.0811-0.2109c-1.3242-0.2637-2.2822-0.6767-2.874-1.2393-0.5918-0.5624-0.8877-1.3447-0.8877-2.3466-0.0000011-1.1601,0.40722-2.0742,1.2217-2.7422,0.82031-0.66796,1.9482-1.0019,3.3838-1.002,0.61523,0.000013,1.2422,0.05568,1.8809,0.16699,0.63866,0.11134,1.292,0.27833,1.96,0.50098"/><path id="path3000" d="m15.302-12.639,0,2.7949,3.3311,0,0,1.2568-3.3311,0,0,5.3438c-0.000003,0.80274,0.1084,1.3184,0.3252,1.5469,0.22265,0.22852,0.67089,0.34277,1.3447,0.34277h1.6611v1.3535h-1.6611c-1.248,0.0003-2.11-0.23115-2.584-0.69404-0.475-0.46876-0.712-1.3184-0.712-2.5489v-5.3438h-1.1865v-1.2568h1.1865v-2.7949h1.626"/><path id="path3002" d="m23.176-4.9482c-1.3066,0.000005-2.2119,0.14942-2.7158,0.44824-0.50391,0.29883-0.75586,0.8086-0.75586,1.5293-0.000002,0.57422,0.1875,1.0313,0.5625,1.3711,0.38086,0.33399,0.89648,0.50098,1.5469,0.50098,0.89648,0.0000011,1.6143-0.3164,2.1533-0.94922,0.54491-0.63867,0.81738-1.4853,0.81738-2.54v-0.36035h-1.6084m3.2256-0.66797,0,5.6162-1.6172,0,0-1.4941c-0.36915,0.59766-0.82911,1.04-1.3799,1.3271-0.55079,0.28125-1.2246,0.42187-2.0215,0.42188-1.0078-2.5E-7-1.8105-0.28125-2.4082-0.84375-0.5918-0.56836-0.8877-1.3271-0.8877-2.2764-0.000001-1.1074,0.36914-1.9424,1.1074-2.5049,0.74414-0.56249,1.8516-0.84374,3.3223-0.84375h2.2676v-0.1582c-0.000007-0.74413-0.2461-1.3184-0.73828-1.7227-0.48633-0.41015-1.1719-0.61523-2.0566-0.61523-0.5625,0.0000087-1.1104,0.067391-1.6436,0.20215-0.53321,0.13477-1.0459,0.33692-1.5381,0.60645v-1.4941c0.59179-0.22851,1.166-0.39843,1.7227-0.50977,0.55664-0.11718,1.0986-0.17577,1.626-0.17578,1.4238,0.00001,2.4873,0.36915,3.1904,1.1074,0.70312,0.73829,1.0547,1.8574,1.0547,3.3574"/><path id="path3004" d="m30.314-12.639,0,2.7949,3.3311,0,0,1.2568-3.3311,0,0,5.3438c-0.000003,0.80274,0.1084,1.3184,0.3252,1.5469,0.22265,0.22852,0.6709,0.34277,1.3447,0.34277h1.6611v1.3535h-1.6611c-1.248,0.0003-2.11-0.23115-2.584-0.69404-0.475-0.46876-0.712-1.3184-0.712-2.5489v-5.3438h-1.1865v-1.2568h1.1865v-2.7949h1.626"/><path id="path3006" d="m33.548-3.8848,0-5.959,1.6172,0,0,5.8975c-0.000003,0.93164,0.18164,1.6318,0.54492,2.1006,0.36328,0.46289,0.9082,0.69434,1.6348,0.69434,0.87304,0.0000012,1.5615-0.27832,2.0654-0.83496,0.50976-0.55664,0.76464-1.3154,0.76465-2.2764v-5.5811h1.6172v9.8438h-1.6172v-1.5117c-0.39259,0.59766-0.84962,1.043-1.3711,1.3359-0.51563,0.28711-1.1162,0.43066-1.8018,0.43066-1.1309-2.5E-7-1.9893-0.35156-2.5752-1.0547-0.586-0.70296-0.879-1.7313-0.879-3.0849"/><path id="path3008" d="m50.002-9.5537,0,1.5293c-0.45704-0.23437-0.93165-0.41015-1.4238-0.52734-0.49219-0.11718-1.002-0.17577-1.5293-0.17578-0.80274,0.0000088-1.4063,0.12306-1.8105,0.36914-0.39844,0.2461-0.59766,0.61524-0.59766,1.1074-0.000002,0.37501,0.14355,0.67091,0.43066,0.8877,0.28711,0.21094,0.86425,0.41309,1.7314,0.60645l0.55371,0.12305c1.1484,0.2461,1.9629,0.59473,2.4434,1.0459,0.48632,0.44532,0.72948,1.0693,0.72949,1.8721-0.000008,0.91406-0.36329,1.6377-1.0898,2.1709-0.72071,0.5332-1.7139,0.7998-2.9795,0.7998-0.52735-2.5E-7-1.0781-0.052735-1.6523-0.1582-0.56836-0.099609-1.1689-0.25195-1.8018-0.45703v-1.6699c0.59765,0.31055,1.1865,0.54492,1.7666,0.70312,0.58008,0.15234,1.1543,0.22852,1.7227,0.22852,0.76171,0.0000011,1.3476-0.1289,1.7578-0.38672,0.41015-0.26367,0.61523-0.63281,0.61523-1.1074-0.000006-0.43945-0.14942-0.77636-0.44824-1.0107-0.29298-0.23437-0.94044-0.45996-1.9424-0.67676l-0.5625-0.13184c-1.002-0.21093-1.7256-0.5332-2.1709-0.9668-0.44531-0.43945-0.66797-1.04-0.66797-1.8018-0.000001-0.92577,0.32812-1.6406,0.98438-2.1445,0.65625-0.5039,1.5879-0.75585,2.7949-0.75586,0.59765,0.00001,1.1602,0.04396,1.6875,0.13184,0.52734,0.0879,1.0137,0.21974,1.459,0.39551"/><path id="path3010" d="m57.2-4.9482c-1.3066,0.000005-2.2119,0.14942-2.7158,0.44824-0.50391,0.29883-0.75586,0.8086-0.75586,1.5293-0.000003,0.57422,0.1875,1.0313,0.5625,1.3711,0.38086,0.33399,0.89648,0.50098,1.5469,0.50098,0.89648,0.0000011,1.6143-0.3164,2.1533-0.94922,0.54492-0.63867,0.81738-1.4853,0.81738-2.54v-0.36035h-1.6084m3.2256-0.66797,0,5.6162-1.6172,0,0-1.4941c-0.36915,0.59766-0.82911,1.04-1.3799,1.3271-0.55079,0.28125-1.2246,0.42187-2.0215,0.42188-1.0078-2.5E-7-1.8106-0.28125-2.4082-0.84375-0.5918-0.56836-0.8877-1.3271-0.8877-2.2764-0.000001-1.1074,0.36914-1.9424,1.1074-2.5049,0.74414-0.56249,1.8516-0.84374,3.3223-0.84375h2.2676v-0.1582c-0.000008-0.74413-0.2461-1.3184-0.73828-1.7227-0.48634-0.41015-1.1719-0.61523-2.0566-0.61523-0.5625,0.0000087-1.1104,0.067391-1.6436,0.20215-0.53321,0.13477-1.0459,0.33692-1.5381,0.60645v-1.4941c0.59179-0.22851,1.166-0.39843,1.7227-0.50977,0.55664-0.11718,1.0986-0.17577,1.626-0.17578,1.4238,0.00001,2.4873,0.36915,3.1904,1.1074,0.70312,0.73829,1.0547,1.8574,1.0547,3.3574m-3.3486-8.0244,1.7842,0,0,1.7754-1.7842,0,0-1.7754-3.4365,0,1.7842,0,0,1.7754-1.7842,0,0-1.7754"/><path id="path3012" d="m70.921-5.9414,0,5.9414-1.6172,0,0-5.8887c-0.000008-0.93163-0.18165-1.6289-0.54492-2.0918-0.36329-0.46288-0.90821-0.69433-1.6348-0.69434-0.87305,0.0000087-1.5615,0.27833-2.0654,0.83496-0.50391,0.55665-0.75586,1.3154-0.75586,2.2764v5.5635h-1.626v-9.8438h1.626v1.5293c0.38672-0.59179,0.84082-1.0342,1.3623-1.3271,0.52734-0.29296,1.1338-0.43944,1.8193-0.43945,1.1309,0.00001,1.9863,0.35157,2.5664,1.0547,0.58007,0.69727,0.87011,1.7256,0.87012,3.085"/><path id="path3014" d="m79.227-8.3496,0-5.3262,1.6172,0,0,13.676-1.6172,0,0-1.4766c-0.33985,0.58594-0.77052,1.0225-1.292,1.3096-0.51563,0.28125-1.1367,0.42187-1.8633,0.42188-1.1895-2.5E-7-2.1592-0.47461-2.9092-1.4238-0.74414-0.94922-1.1162-2.1973-1.1162-3.7441-0.000001-1.5469,0.37207-2.7949,1.1162-3.7441,0.75-0.94921,1.7197-1.4238,2.9092-1.4238,0.72656,0.00001,1.3476,0.14356,1.8633,0.43066,0.52148,0.28126,0.95214,0.71485,1.292,1.3008m-5.5107,3.4365c-0.000003,1.1895,0.24316,2.124,0.72949,2.8037,0.49218,0.67383,1.166,1.0107,2.0215,1.0107,0.85546,0.0000011,1.5293-0.33691,2.0215-1.0107,0.49218-0.67968,0.73827-1.6143,0.73828-2.8037-0.000008-1.1894-0.2461-2.1211-0.73828-2.7949-0.4922-0.67968-1.166-1.0195-2.0215-1.0195-0.85547,0.0000088-1.5293,0.33985-2.0215,1.0195-0.48633,0.67384-0.7295,1.6055-0.72949,2.7949"/><path id="path3016" d="m91.181-5.3262,0,0.79102-7.4355,0c0.07031,1.1133,0.40429,1.9629,1.002,2.5488,0.60351,0.58008,1.4414,0.87012,2.5137,0.87012,0.62109,0.0000011,1.2217-0.076171,1.8018-0.22852,0.58593-0.15234,1.166-0.38086,1.7402-0.68555v1.5293c-0.58009,0.24609-1.1748,0.43359-1.7842,0.5625-0.60938,0.12891-1.2275,0.19336-1.8545,0.19336-1.5703-2.5E-7-2.8154-0.45703-3.7354-1.3711-0.91406-0.91406-1.3711-2.1504-1.3711-3.709-0.000001-1.6113,0.43359-2.8887,1.3008-3.832,0.87304-0.94921,2.0478-1.4238,3.5244-1.4238,1.3242,0.00001,2.3701,0.42774,3.1377,1.2832,0.77343,0.84962,1.1601,2.0068,1.1602,3.4717m-1.619-0.4747c-0.01173-0.88476-0.26075-1.5908-0.74707-2.1182-0.48048-0.52734-1.1191-0.79101-1.916-0.79102-0.90235,0.0000087-1.626,0.25489-2.1709,0.76465-0.53907,0.50977-0.84961,1.2275-0.93164,2.1533l5.7656-0.00879"/><path id="path3018" d="m98.477-8.332c-0.18165-0.10546-0.38087-0.18163-0.59766-0.22852-0.21094-0.052726-0.44532-0.079093-0.70312-0.079102-0.91407,0.0000086-1.6172,0.29884-2.1094,0.89648-0.48633,0.5918-0.7295,1.4443-0.72949,2.5576v5.1855h-1.626v-9.8438h1.626v1.5293c0.33984-0.59765,0.78222-1.04,1.3271-1.3271,0.54492-0.29296,1.207-0.43944,1.9863-0.43945,0.11132,0.00001,0.23437,0.0088,0.36914,0.02637,0.13476,0.01173,0.28417,0.03224,0.44824,0.061524l0.0088,1.6611"/><path id="path3020" d="m98.6-3.8848,0-5.959,1.6172,0,0,5.8975c0,0.93164,0.18164,1.6318,0.54492,2.1006,0.36328,0.46289,0.9082,0.69434,1.6348,0.69434,0.87304,0.0000012,1.5615-0.27832,2.0654-0.83496,0.50976-0.55664,0.76464-1.3154,0.76465-2.2764v-5.5811h1.6172v9.8438h-1.6172v-1.5117c-0.39259,0.59766-0.84962,1.043-1.3711,1.3359-0.51563,0.28711-1.1162,0.43066-1.8018,0.43066-1.1309-2.5E-7-1.9893-0.35156-2.5752-1.0547-0.582-0.70296-0.875-1.7313-0.875-3.0849"/><path id="path3022" d="m116.96-5.9414,0,5.9414-1.6172,0,0-5.8887c-0.00001-0.93163-0.18165-1.6289-0.54492-2.0918-0.36329-0.46288-0.90821-0.69433-1.6348-0.69434-0.87305,0.0000087-1.5615,0.27833-2.0654,0.83496-0.50391,0.55665-0.75586,1.3154-0.75586,2.2764v5.5635h-1.626v-9.8438h1.626v1.5293c0.38672-0.59179,0.84082-1.0342,1.3623-1.3271,0.52734-0.29296,1.1338-0.43944,1.8193-0.43945,1.1309,0.00001,1.9863,0.35157,2.5664,1.0547,0.58007,0.69727,0.87011,1.7256,0.87012,3.085"/><path id="path3024" d="m125.27-5.0361c-0.00001-1.1719-0.24318-2.0801-0.7295-2.7246-0.48047-0.64452-1.1572-0.96679-2.0303-0.9668-0.86719,0.0000088-1.544,0.32227-2.0303,0.9668-0.48048,0.64454-0.72071,1.5527-0.72071,2.7246,0,1.166,0.24023,2.0713,0.72071,2.7158,0.48632,0.64453,1.1631,0.9668,2.0303,0.9668,0.87304,0.0000013,1.5498-0.32226,2.0303-0.9668,0.48632-0.64453,0.72949-1.5498,0.7295-2.7158m1.6172,3.8145c-0.00001,1.6758-0.37208,2.9209-1.1162,3.7354-0.74415,0.82031-1.8838,1.2305-3.4189,1.2305-0.56837-0.0000037-1.1045-0.043949-1.6084-0.13184-0.50391-0.082035-0.99317-0.21094-1.4678-0.38672v-1.5732c0.47461,0.25781,0.94336,0.44824,1.4062,0.57129,0.46289,0.12304,0.93457,0.18457,1.415,0.18457,1.0605-0.0000024,1.8545-0.27832,2.3818-0.83496,0.52734-0.55078,0.79101-1.3857,0.79102-2.5049v-0.7998c-0.334,0.58008-0.76173,1.0137-1.2832,1.3008-0.53,0.28685-1.15,0.4304-1.88,0.4304-1.207,0-2.1797-0.45996-2.918-1.3799-0.73828-0.91992-1.1074-2.1387-1.1074-3.6562,0-1.5234,0.36914-2.7451,1.1074-3.665,0.73828-0.91991,1.7109-1.3799,2.918-1.3799,0.72656,0.00001,1.3506,0.14356,1.8721,0.43066,0.52148,0.28712,0.94921,0.72071,1.2832,1.3008v-1.4941h1.6172v8.6221"/></g></g></g></g></svg>