<?xml version="1.0" encoding="UTF-8" standalone="no"?>
<!-- Created with Inkscape (http://www.inkscape.org/) -->

<svg
   xmlns:svg="http://www.w3.org/2000/svg"
   xmlns="http://www.w3.org/2000/svg"
   version="1.1"
   width="277.5"
   height="158.75"
   id="svg2"
   xml:space="preserve"><defs
     id="defs6" /><g
     transform="matrix(1.25,0,0,-1.25,0,158.75)"
     id="g12"><g
       id="g14" /><g
       id="g16"><path
         d="M 0,0 222,0 222,127 0,127 0,0 z"
         id="path18"
         style="fill:#ffffff;fill-opacity:1;fill-rule:nonzero;stroke:none" /><g
         transform="matrix(1,0,0,-1,-258.5,338.5)"
         id="g20"><path
           d="m 266,214 208,0 c 2.7614,0 5,2.2386 5,5 l 0,113 c 0,2.7614 -2.2386,5 -5,5 l -208,0 c -2.7614,0 -5,-2.2386 -5,-5 0,0 0,0 0,0 l 0,-113 c 0,-2.7614 2.2386,-5 5,-5 z"
           id="path22"
           style="fill:none;stroke:#000000;stroke-width:1;stroke-linecap:round;stroke-linejoin:round;stroke-miterlimit:10;stroke-opacity:1;stroke-dasharray:none" /></g><g
         transform="matrix(1,0,0,-1,111,63.5)"
         id="g24"><text
           transform="translate(-27.33398,-40.5)"
           id="text26"><tspan
             x="0 9.3336 13.9992 21.3288 28.6584 35.987999 42.6576 45.991199"
             y="0"
             id="tspan28"
             style="font-size:12px;font-variant:normal;font-weight:bold;writing-mode:lr-tb;fill:#000000;fill-opacity:1;fill-rule:nonzero;stroke:none;font-family:Helvetica;-inkscape-font-specification:Helvetica-Bold">Gruppe C</tspan></text>
</g><path
         d="m 87.97058,49.26712 13.16082,23.64233 c 1.3431,2.41279 4.3879,3.27991 6.8007,1.9368 0.8133,-0.45273 1.484,-1.1235 1.9368,-1.9368 l 13.1608,-23.64233 c 1.3431,-2.41278 0.476,-5.45752 -1.9368,-6.80063 -0.7437,-0.414 -1.5807,-0.63128 -2.4319,-0.63128 l -26.32171,0 c -2.76141,0 -5,2.23858 -5,5 0,0.85116 0.21726,1.68823 0.63126,2.43191 l 3e-5,0 z"
         id="path30"
         style="fill:#ffffff;fill-opacity:1;fill-rule:nonzero;stroke:none" /><g
         transform="matrix(1,0,0,-1,-258.5,338.5)"
         id="g32"><path
           d="m 346.4706,289.2329 13.1608,-23.6424 c 1.3431,-2.4127 4.3879,-3.2799 6.8007,-1.9368 0.8133,0.4528 1.484,1.1236 1.9368,1.9368 l 13.1608,23.6424 c 1.3431,2.4128 0.476,5.4575 -1.9368,6.8006 -0.7437,0.414 -1.5807,0.6313 -2.4319,0.6313 l -26.3217,0 c -2.7614,0 -5,-2.2386 -5,-5 0,-0.8512 0.2172,-1.6882 0.6313,-2.4319 z"
           id="path34"
           style="fill:none;stroke:#000000;stroke-width:1;stroke-linecap:round;stroke-linejoin:round;stroke-miterlimit:10;stroke-opacity:1;stroke-dasharray:none" /></g><path
         d="m 113.5419,84.24242 c 4.4417,-4.78743 4.4417,-12.5494 0,-17.33684 -4.4416,-4.78745 -11.643,-4.78745 -16.08462,0 -4.44172,4.78744 -4.44172,12.54941 0,17.33684 4.44162,4.78746 11.64302,4.78746 16.08462,0"
         id="path36"
         style="fill:#ffffff;fill-opacity:1;fill-rule:nonzero;stroke:none" /><g
         transform="matrix(1,0,0,-1,-258.5,338.5)"
         id="g38"><path
           d="m 372.0419,254.2576 c 4.4417,4.7874 4.4417,12.5494 0,17.3368 -4.4416,4.7875 -11.643,4.7875 -16.0846,0 -4.4417,-4.7874 -4.4417,-12.5494 0,-17.3368 4.4416,-4.7875 11.643,-4.7875 16.0846,0"
           id="path40"
           style="fill:none;stroke:#000000;stroke-width:1;stroke-linecap:round;stroke-linejoin:round;stroke-miterlimit:10;stroke-opacity:1;stroke-dasharray:none" /></g><path
         d="m 93.63757,43.26111 13.16083,23.64233 c 1.3431,2.41278 4.3879,3.27991 6.8007,1.9368 0.8133,-0.45273 1.484,-1.1235 1.9368,-1.9368 l 13.1608,-23.64233 c 1.3431,-2.41278 0.476,-5.45752 -1.9368,-6.80063 -0.7437,-0.414 -1.5807,-0.63129 -2.4319,-0.63129 l -26.32171,0 c -2.76142,0 -5,2.23859 -5,5 0,0.85117 0.21725,1.68824 0.63125,2.43192 l 3e-5,0 z"
         id="path42"
         style="fill:#ffffff;fill-opacity:1;fill-rule:nonzero;stroke:none" /><g
         transform="matrix(1,0,0,-1,-258.5,338.5)"
         id="g44"><path
           d="m 352.1376,295.2389 13.1608,-23.6423 c 1.3431,-2.4128 4.3879,-3.2799 6.8007,-1.9368 0.8133,0.4527 1.484,1.1235 1.9368,1.9368 l 13.1608,23.6423 c 1.3431,2.4128 0.476,5.4575 -1.9368,6.8006 -0.7437,0.414 -1.5807,0.6313 -2.4319,0.6313 l -26.3217,0 c -2.7614,0 -5,-2.2386 -5,-5 0,-0.8512 0.2172,-1.6882 0.6312,-2.4319 l 1e-4,0 z"
           id="path46"
           style="fill:none;stroke:#000000;stroke-width:1;stroke-linecap:round;stroke-linejoin:round;stroke-miterlimit:10;stroke-opacity:1;stroke-dasharray:none" /></g><path
         d="m 119.2089,78.23642 c 4.4417,-4.78745 4.4417,-12.54941 0,-17.33685 -4.4416,-4.78745 -11.643,-4.78745 -16.0846,0 -4.44174,4.78744 -4.44174,12.5494 0,17.33685 4.4416,4.78744 11.643,4.78744 16.0846,0"
         id="path48"
         style="fill:#ffffff;fill-opacity:1;fill-rule:nonzero;stroke:none" /><g
         transform="matrix(1,0,0,-1,-258.5,338.5)"
         id="g50"><path
           d="m 377.7089,260.2636 c 4.4417,4.7874 4.4417,12.5494 0,17.3368 -4.4416,4.7875 -11.643,4.7875 -16.0846,0 -4.4417,-4.7874 -4.4417,-12.5494 0,-17.3368 4.4416,-4.7875 11.643,-4.7875 16.0846,0"
           id="path52"
           style="fill:none;stroke:#000000;stroke-width:1;stroke-linecap:round;stroke-linejoin:round;stroke-miterlimit:10;stroke-opacity:1;stroke-dasharray:none" /></g><path
         d="m 99.63757,36.59509 13.16083,23.64234 c 1.3431,2.41278 4.3879,3.2799 6.8007,1.93679 0.8133,-0.45272 1.484,-1.1235 1.9368,-1.93679 l 13.1608,-23.64234 c 1.3431,-2.41278 0.476,-5.45752 -1.9368,-6.80063 -0.7437,-0.414 -1.5807,-0.63128 -2.4319,-0.63128 l -26.3217,0 c -2.7614,0 -5.00001,2.23858 -5.00001,5 0,0.85116 0.21725,1.68823 0.63125,2.43191 l 3e-5,0 z"
         id="path54"
         style="fill:#ffffff;fill-opacity:1;fill-rule:nonzero;stroke:none" /><g
         transform="matrix(1,0,0,-1,-258.5,338.5)"
         id="g56"><path
           d="m 358.1376,301.9049 13.1608,-23.6423 c 1.3431,-2.4128 4.3879,-3.2799 6.8007,-1.9368 0.8133,0.4527 1.484,1.1235 1.9368,1.9368 l 13.1608,23.6423 c 1.3431,2.4128 0.476,5.4575 -1.9368,6.8006 -0.7437,0.414 -1.5807,0.6313 -2.4319,0.6313 l -26.3217,0 c -2.7614,0 -5,-2.2386 -5,-5 0,-0.8511 0.2172,-1.6882 0.6312,-2.4319 l 1e-4,0 z"
           id="path58"
           style="fill:none;stroke:#000000;stroke-width:1;stroke-linecap:round;stroke-linejoin:round;stroke-miterlimit:10;stroke-opacity:1;stroke-dasharray:none" /></g><path
         d="m 125.2089,71.57043 c 4.4417,-4.78744 4.4417,-12.5494 0,-17.33685 -4.4416,-4.78744 -11.643,-4.78744 -16.0846,0 -4.4417,4.78745 -4.4417,12.54941 0,17.33685 4.4416,4.78745 11.643,4.78745 16.0846,0"
         id="path60"
         style="fill:#ffffff;fill-opacity:1;fill-rule:nonzero;stroke:none" /><g
         transform="matrix(1,0,0,-1,-258.5,338.5)"
         id="g62"><path
           d="m 383.7089,266.9296 c 4.4417,4.7874 4.4417,12.5494 0,17.3368 -4.4416,4.7875 -11.643,4.7875 -16.0846,0 -4.4417,-4.7874 -4.4417,-12.5494 0,-17.3368 4.4416,-4.7875 11.643,-4.7875 16.0846,0"
           id="path64"
           style="fill:none;stroke:#000000;stroke-width:1;stroke-linecap:round;stroke-linejoin:round;stroke-miterlimit:10;stroke-opacity:1;stroke-dasharray:none" /></g><g
         transform="matrix(1,0,0,-1,110.8336,18)"
         id="g66"><text
           transform="translate(-25.20703,4)"
           id="text68"><tspan
             x="0 9.3336 13.3296 20.004 26.6784 33.352798 40.027199"
             y="0"
             id="tspan70"
             style="font-size:12px;font-variant:normal;font-weight:normal;writing-mode:lr-tb;fill:#000000;fill-opacity:1;fill-rule:nonzero;stroke:none;font-family:Helvetica;-inkscape-font-specification:Helvetica">Gruppe </tspan></text>
</g><g
         transform="matrix(1,0,0,-1,110.8336,18)"
         id="g72"><text
           transform="translate(17.49609,4)"
           id="text74"><tspan
             x="0"
             y="0"
             id="tspan76"
             style="font-size:12px;font-variant:normal;font-weight:normal;writing-mode:lr-tb;fill:#000000;fill-opacity:1;fill-rule:nonzero;stroke:none;font-family:Helvetica;-inkscape-font-specification:Helvetica">A</tspan></text>
</g><path
         d="m 156.6366,49.26712 13.1608,23.64233 c 1.3431,2.41279 4.3879,3.27991 6.8007,1.9368 0.8132,-0.45273 1.484,-1.1235 1.9368,-1.9368 l 13.1608,-23.64233 c 1.3431,-2.41278 0.476,-5.45752 -1.9368,-6.80063 -0.7437,-0.414 -1.5807,-0.63128 -2.4319,-0.63128 l -26.3217,0 c -2.7614,0 -5,2.23858 -5,5 0,0.85116 0.2172,1.68823 0.6312,2.43191 l 10e-5,0 z"
         id="path78"
         style="fill:#ffffff;fill-opacity:1;fill-rule:nonzero;stroke:none" /><g
         transform="matrix(1,0,0,-1,-258.5,338.5)"
         id="g80"><path
           d="m 415.1366,289.2329 13.1608,-23.6424 c 1.3431,-2.4127 4.3879,-3.2799 6.8007,-1.9368 0.8132,0.4528 1.484,1.1236 1.9368,1.9368 l 13.1608,23.6424 c 1.3431,2.4128 0.476,5.4575 -1.9368,6.8006 -0.7437,0.414 -1.5807,0.6313 -2.4319,0.6313 l -26.3217,0 c -2.7614,0 -5,-2.2386 -5,-5 0,-0.8512 0.2172,-1.6882 0.6312,-2.4319 l 10e-5,0 z"
           id="path82"
           style="fill:none;stroke:#000000;stroke-width:1;stroke-linecap:round;stroke-linejoin:round;stroke-miterlimit:10;stroke-opacity:1;stroke-dasharray:none" /></g><path
         d="m 182.2079,84.24242 c 4.4417,-4.78743 4.4417,-12.5494 0,-17.33684 -4.4416,-4.78745 -11.643,-4.78745 -16.0846,0 -4.4418,4.78744 -4.4418,12.54941 0,17.33684 4.4416,4.78746 11.643,4.78746 16.0846,0"
         id="path84"
         style="fill:#ffffff;fill-opacity:1;fill-rule:nonzero;stroke:none" /><g
         transform="matrix(1,0,0,-1,-258.5,338.5)"
         id="g86"><path
           d="m 440.7079,254.2576 c 4.4417,4.7874 4.4417,12.5494 0,17.3368 -4.4416,4.7875 -11.643,4.7875 -16.0846,0 -4.4418,-4.7874 -4.4418,-12.5494 0,-17.3368 4.4416,-4.7875 11.643,-4.7875 16.0846,0"
           id="path88"
           style="fill:none;stroke:#000000;stroke-width:1;stroke-linecap:round;stroke-linejoin:round;stroke-miterlimit:10;stroke-opacity:1;stroke-dasharray:none" /></g><path
         d="m 162.3036,43.26114 13.1608,23.64233 c 1.3431,2.41278 4.3879,3.27991 6.8006,1.9368 0.8133,-0.45273 1.4841,-1.1235 1.9368,-1.9368 l 13.1609,-23.64233 c 1.3431,-2.41278 0.476,-5.45752 -1.9368,-6.80063 -0.7437,-0.414 -1.5807,-0.63129 -2.4319,-0.63129 l -26.3217,0 c -2.7614,0 -5,2.23859 -5,5 0,0.85117 0.2172,1.68824 0.6312,2.43192 l 10e-5,0 z"
         id="path90"
         style="fill:#ffffff;fill-opacity:1;fill-rule:nonzero;stroke:none" /><g
         transform="matrix(1,0,0,-1,-258.5,338.5)"
         id="g92"><path
           d="m 420.8036,295.2389 13.1608,-23.6424 c 1.3431,-2.4128 4.3879,-3.2799 6.8006,-1.9368 0.8133,0.4528 1.4841,1.1235 1.9368,1.9368 l 13.1609,23.6424 c 1.3431,2.4127 0.476,5.4575 -1.9368,6.8006 -0.7437,0.414 -1.5807,0.6313 -2.4319,0.6313 l -26.3217,0 c -2.7614,0 -5,-2.2386 -5,-5 0,-0.8512 0.2172,-1.6883 0.6312,-2.4319 l 1e-4,0 z"
           id="path94"
           style="fill:none;stroke:#000000;stroke-width:1;stroke-linecap:round;stroke-linejoin:round;stroke-miterlimit:10;stroke-opacity:1;stroke-dasharray:none" /></g><path
         d="m 187.8749,78.23645 c 4.4417,-4.78744 4.4417,-12.54941 0,-17.33685 -4.4416,-4.78745 -11.643,-4.78745 -16.0846,0 -4.4418,4.78744 -4.4418,12.54941 0,17.33685 4.4416,4.78745 11.643,4.78745 16.0846,0"
         id="path96"
         style="fill:#ffffff;fill-opacity:1;fill-rule:nonzero;stroke:none" /><g
         transform="matrix(1,0,0,-1,-258.5,338.5)"
         id="g98"><path
           d="m 446.3749,260.2635 c 4.4417,4.7875 4.4417,12.5495 0,17.3369 -4.4416,4.7874 -11.643,4.7874 -16.0846,0 -4.4418,-4.7874 -4.4418,-12.5494 0,-17.3369 4.4416,-4.7874 11.643,-4.7874 16.0846,0"
           id="path100"
           style="fill:none;stroke:#000000;stroke-width:1;stroke-linecap:round;stroke-linejoin:round;stroke-miterlimit:10;stroke-opacity:1;stroke-dasharray:none" /></g><path
         d="m 168.3036,36.59509 13.1608,23.64234 c 1.3431,2.41278 4.3879,3.2799 6.8006,1.93679 0.8133,-0.45272 1.4841,-1.1235 1.9368,-1.93679 l 13.1609,-23.64234 c 1.3431,-2.41278 0.476,-5.45752 -1.9368,-6.80063 -0.7437,-0.414 -1.5807,-0.63128 -2.4319,-0.63128 l -26.3217,0 c -2.7614,0 -5,2.23858 -5,5 0,0.85116 0.2172,1.68823 0.6312,2.43191 l 10e-5,0 z"
         id="path102"
         style="fill:#ffffff;fill-opacity:1;fill-rule:nonzero;stroke:none" /><g
         transform="matrix(1,0,0,-1,-258.5,338.5)"
         id="g104"><path
           d="m 426.8036,301.9049 13.1608,-23.6423 c 1.3431,-2.4128 4.3879,-3.2799 6.8006,-1.9368 0.8133,0.4527 1.4841,1.1235 1.9368,1.9368 l 13.1609,23.6423 c 1.3431,2.4128 0.476,5.4575 -1.9368,6.8006 -0.7437,0.414 -1.5807,0.6313 -2.4319,0.6313 l -26.3217,0 c -2.7614,0 -5,-2.2386 -5,-5 0,-0.8511 0.2172,-1.6882 0.6312,-2.4319 l 1e-4,0 z"
           id="path106"
           style="fill:none;stroke:#000000;stroke-width:1;stroke-linecap:round;stroke-linejoin:round;stroke-miterlimit:10;stroke-opacity:1;stroke-dasharray:none" /></g><path
         d="m 193.8749,71.57043 c 4.4417,-4.78744 4.4417,-12.5494 0,-17.33685 -4.4416,-4.78744 -11.643,-4.78744 -16.0846,0 -4.4418,4.78745 -4.4418,12.54941 0,17.33685 4.4416,4.78745 11.643,4.78745 16.0846,0"
         id="path108"
         style="fill:#ffffff;fill-opacity:1;fill-rule:nonzero;stroke:none" /><g
         transform="matrix(1,0,0,-1,-258.5,338.5)"
         id="g110"><path
           d="m 452.3749,266.9296 c 4.4417,4.7874 4.4417,12.5494 0,17.3368 -4.4416,4.7875 -11.643,4.7875 -16.0846,0 -4.4418,-4.7874 -4.4418,-12.5494 0,-17.3368 4.4416,-4.7875 11.643,-4.7875 16.0846,0"
           id="path112"
           style="fill:none;stroke:#000000;stroke-width:1;stroke-linecap:round;stroke-linejoin:round;stroke-miterlimit:10;stroke-opacity:1;stroke-dasharray:none" /></g><g
         transform="matrix(1,0,0,-1,179,18)"
         id="g114"><text
           transform="translate(-25.36328,4)"
           id="text116"><tspan
             x="0 9.3336 13.3296 20.004 26.6784 33.352798 40.027199 43.360802"
             y="0"
             id="tspan118"
             style="font-size:12px;font-variant:normal;font-weight:normal;writing-mode:lr-tb;fill:#000000;fill-opacity:1;fill-rule:nonzero;stroke:none;font-family:Helvetica;-inkscape-font-specification:Helvetica">Gruppe B</tspan></text>
</g><path
         d="m 24.47043,36.93451 13.16086,23.64233 c 1.34311,2.41278 4.38784,3.27991 6.80063,1.9368 0.81329,-0.45273 1.48407,-1.1235 1.93679,-1.9368 L 59.52957,36.93451 c 1.34311,-2.41278 0.47598,-5.45752 -1.9368,-6.80063 -0.74368,-0.414 -1.58075,-0.63129 -2.43191,-0.63129 l -26.32172,0 c -2.76141,0 -5,2.23859 -5,5 0,0.85117 0.21726,1.68824 0.63126,2.43192 l 3e-5,0 z"
         id="path120"
         style="fill:#ffffff;fill-opacity:1;fill-rule:nonzero;stroke:none" /><g
         transform="matrix(1,0,0,-1,-258.5,338.5)"
         id="g122"><path
           d="m 282.9704,301.5655 13.1609,-23.6423 c 1.3431,-2.4128 4.3878,-3.28 6.8006,-1.9368 0.8133,0.4527 1.4841,1.1235 1.9368,1.9368 l 13.1609,23.6423 c 1.3431,2.4128 0.476,5.4575 -1.9368,6.8006 -0.7437,0.414 -1.5808,0.6313 -2.4319,0.6313 l -26.3218,0 c -2.7614,0 -5,-2.2386 -5,-5 0,-0.8512 0.2173,-1.6882 0.6313,-2.4319 z"
           id="path124"
           style="fill:none;stroke:#000000;stroke-width:1;stroke-linecap:round;stroke-linejoin:round;stroke-miterlimit:10;stroke-opacity:1;stroke-dasharray:none" /></g><path
         d="m 50.04178,71.90942 c 4.44171,-4.78744 4.44171,-12.5494 0,-17.33685 -4.44165,-4.78744 -11.64301,-4.78744 -16.08466,0 -4.44171,4.78745 -4.44171,12.54941 0,17.33685 4.44165,4.78745 11.64301,4.78745 16.08466,0"
         id="path126"
         style="fill:#ffffff;fill-opacity:1;fill-rule:nonzero;stroke:none" /><g
         transform="matrix(1,0,0,-1,-258.5,338.5)"
         id="g128"><path
           d="m 308.5418,266.5906 c 4.4417,4.7874 4.4417,12.5494 0,17.3368 -4.4417,4.7875 -11.643,4.7875 -16.0847,0 -4.4417,-4.7874 -4.4417,-12.5494 0,-17.3368 4.4417,-4.7875 11.643,-4.7875 16.0847,0"
           id="path130"
           style="fill:none;stroke:#000000;stroke-width:1;stroke-linecap:round;stroke-linejoin:round;stroke-miterlimit:10;stroke-opacity:1;stroke-dasharray:none" /></g><g
         transform="matrix(1,0,0,-1,41.5,18)"
         id="g132"><text
           transform="translate(-29.19336,4)"
           id="text134"><tspan
             x="0 8.0039997 14.6784 21.3528 28.027201 31.3608 37.360802 44.035198 48.0312 51.364799"
             y="0"
             id="tspan136"
             style="font-size:12px;font-variant:normal;font-weight:normal;writing-mode:lr-tb;fill:#000000;fill-opacity:1;fill-rule:nonzero;stroke:none;font-family:Helvetica;-inkscape-font-specification:Helvetica">Benutzer F</tspan></text>
</g></g></g></svg>